<svg id="Layer_1" data-name="Layer 1" xmlns="http://www.w3.org/2000/svg" viewBox="0 0 381.28 382.42"><defs><style>.cls-1{fill:#a1d8ce;}.cls-2{opacity:0.3;}.cls-3{fill:#fff;}.cls-4{fill:#231f20;}.cls-5{fill:#302c26;}.cls-6{fill:#534137;}.cls-7{fill:#241b18;}.cls-8{fill:#f26322;}.cls-9{fill:#e54122;}.cls-10{fill:#939290;}.cls-11{fill:#251c15;}.cls-12{fill:#a7a9ac;}.cls-13{fill:#3b312d;}</style></defs><title>DFUcircle</title><circle class="cls-1" cx="190.5" cy="190" r="187.5"/><g class="cls-2"><path class="cls-3" d="M258.67,87.25c2.91-3.6,5.6-7.4,8.82-10.72,4.44-4.58,9.91-8.27,13.36-13.63a3,3,0,0,0,.64-1.82c-.1-1.18-1.43-1.86-2.61-2-3.76-.43-7.12,2.19-9.95,4.7A114.67,114.67,0,0,0,255.87,76.9c-4,4.86-7.85,10.64-14,12,1.07-5,4.44-9.24,8.16-12.78s7.9-6.6,11.29-10.45c3.78-4.29,6.71-9.65,11.81-12.22,1.14-.57,2.61-1.67,1.93-2.74A2,2,0,0,0,273.9,50c-5.69-1.65-12,.23-16.78,3.68s-8.44,8.28-11.8,13.16-6.61,9.91-10.92,14c-1.36-2.78.16-6,1.66-8.75q4.51-8.19,9.05-16.38a18.14,18.14,0,0,1,2.35-3.56c1.41-1.53,3.32-2.54,4.63-4.15l.25-.78c4-3.61,8.31-7.59,9.43-12.9a2,2,0,0,0,0-1.1c-.26-.65-1.07-.86-1.77-.91-5.65-.46-11,2.84-15,6.87-7.95,8-12.12,18.88-17,29a6.2,6.2,0,0,1-2.23,2.91c-1.08.62-2.75.34-3.14-.84a3.1,3.1,0,0,1,.26-2.06c5.27-13.85,15.45-25.16,23.32-37.71a2.05,2.05,0,0,0,.43-1.88c-.38-.8-1.5-.77-2.36-.61-4.48.8-9.3,1.78-12.33,5.18a18.73,18.73,0,0,0-2.68,4.36c-4.56,9.43-7.75,19.75-14.58,27.69-.73.85-1.92,1.73-2.85,1.11-.75-.5-.7-1.61-.54-2.51a146.39,146.39,0,0,1,6.63-25.29,33.65,33.65,0,0,0,2.22-7.88,3.12,3.12,0,0,0-.13-1.55c-.66-1.53-2.94-1.28-4.42-.51a19.26,19.26,0,0,0-7.93,8.55,57.37,57.37,0,0,0-3.89,11.18Q200.86,59,198,69.69c-.3,1.08-.72,2.31-1.76,2.72a2.51,2.51,0,0,1-2.81-1.14,7.77,7.77,0,0,1-.94-3.11A95,95,0,0,0,189.38,55a8.9,8.9,0,0,0-1.46-3.13,3.21,3.21,0,0,0-3-1.25c-2.11.46-2.56,3.23-2.62,5.39a107.61,107.61,0,0,1-2.73,21.37h.16c-.27,1-1.72,1.34-2.66.82a4.82,4.82,0,0,1-1.85-2.55,6.79,6.79,0,0,0-1.63-2.74c-1.66-1.38-4.4-.52-5.64,1.25s-1.34,4.09-1.2,6.25.47,4.36,0,6.46c-.14.56-.46,1.21-1,1.24-.78,0-1.08-1-1.39-1.69a4.12,4.12,0,0,0-5-1.88,7.82,7.82,0,0,0-4.18,3.87c-1.15,2.1-1.77,4.69-.83,6.89a11.29,11.29,0,0,1,.91,2.12,1.66,1.66,0,0,1-.86,1.93c-.78.25-1.53-.38-2.25-.76a4.83,4.83,0,0,0-5.9,1.58,6.82,6.82,0,0,0-.63,6.36,11.89,11.89,0,0,0,4.12,5.12l-.35,1a5.59,5.59,0,0,0-8,.66c-2.15,2.88-.94,7,.62,10.22a2.12,2.12,0,0,1,.31,1.11c-.11,1.12-1.64,1.26-2.71,1.6-2.41.75-3.4,3.57-3.9,6a3.49,3.49,0,0,0,.28,2.86c.48.6,1.31.85,1.72,1.49a2.17,2.17,0,0,1-.73,2.72,8.89,8.89,0,0,1-2.83,1.2,8.37,8.37,0,0,0-5.17,4.22c-.92,2.1-.29,4.95,1.75,6,.85.43,2.1.9,1.9,1.83-.13.62-.86.88-1.48,1a27.33,27.33,0,0,0-11.26,6.21,4.14,4.14,0,0,0-1.24,1.64,1.56,1.56,0,0,0,.55,1.83c.75.43,1.91,0,2.4.72a1.38,1.38,0,0,1-.32,1.61c-1,1.19-2.78,1.52-4,2.56-2.22,1.93-1.77,5.66-.06,8.06,1.1,1.53,2.72,2.76,3.84,4.21a21.22,21.22,0,0,0-9.71-6.77c-2.74-2.14-5.58-4.15-8.43-6.15-2.62-1.84-5.75-3.78-8.8-2.83a3.86,3.86,0,0,0-2.69,2.62,4.89,4.89,0,0,0,.08,2.15c1.2,5.9,5.38,10.6,10.34,14.21,0,.21-.08.42-.11.62l-1-.57,1,.66c0,.18,0,.37-.07.55-.29.06-.58.13-.87.22A38.83,38.83,0,0,0,92,181.69a14.34,14.34,0,0,0-7.18-.23,10.68,10.68,0,0,0-7.32,8.68c-.26,1.7,0,3.68,1.32,4.75a6.26,6.26,0,0,0,2.45,1l11.93,2.88a2.41,2.41,0,0,1,.09.75l-3.63-.79a23,23,0,0,0-7.22-.78l-.16,0-1.44-.36c-.16-.13-.36.1-.33.3l-.52-.09.52.09a.15.15,0,0,0,0,.07.52.52,0,0,0,.33.24l-.14,0H80.1l.42,0a21.64,21.64,0,0,0-4.21,1.65c-4,2-8,5.49-8,10a3.88,3.88,0,0,0,1.47,3.31,4.53,4.53,0,0,0,1.92.58c5.13.62,10.23-1.09,15.37-1.67,1-.12,2.08-.18,3.13-.22a4.48,4.48,0,0,0,.8.83c.81.64,1.85,1.06,2.39,2A5.33,5.33,0,0,0,88.58,218a74.87,74.87,0,0,0-14.09,6.63c-2.11,1.29-4.42,3.21-4.1,5.66a4.39,4.39,0,0,0,2.8,3.27,9.79,9.79,0,0,0,4.44.46,42.06,42.06,0,0,0,9.37-2,70.29,70.29,0,0,0-15.19,9.8,11.83,11.83,0,0,0-3.06,3.52,4.58,4.58,0,0,0,0,4.48,5.54,5.54,0,0,0,4.22,2c3.71.32,7.38-.94,10.78-2.46a113.18,113.18,0,0,0,16.81-9.74,3.7,3.7,0,0,0,.5.64,3,3,0,0,0,.34.28c-1.36.64-2.7,1.3-4,2h0a6.58,6.58,0,0,0-4.07,2.28,90.36,90.36,0,0,0-8.45,5.68,4.84,4.84,0,0,0-1.14,1.07l7.91-4.91-.14.16c-3.29,3.68-7.43,6.51-10.85,10.07S74.49,265.08,75,270c.27,2.62,1.91,5.45,4.53,5.74a4.65,4.65,0,0,0,1.18-.05l-1.62,1.71,1.85-1.75a10.67,10.67,0,0,0,2-.62c.43-.18.85-.38,1.28-.57-1.24,1.21-2.51,2.4-3.83,3.54a5.47,5.47,0,0,0-2.17,3c-.27,1.75,1.39,3.35,3.14,3.57A7.4,7.4,0,0,0,86.27,283a45.54,45.54,0,0,1,4-2.79l-.09.1a8.26,8.26,0,0,0-2.49,2.67L85,285.85c.82-.77,1.61-1.57,2.41-2.36a8.28,8.28,0,0,0,1.71,9.66,3.55,3.55,0,0,0,1.72,1,4.07,4.07,0,0,0,3-1.08,29.44,29.44,0,0,0,4.85-4.62l-.22.35c.15-.2.29-.41.44-.62,1.38-1.63,2.66-3.38,3.89-5.13q4-5.78,7.73-11.81a45.74,45.74,0,0,1-6.44,14.69c-2.1,3.12-4.71,6.7-3.51,10.26.72,2.13,2.69,3.61,4.75,4.52a4.55,4.55,0,0,0,2.27.51,5,5,0,0,0,2.23-1,37.54,37.54,0,0,0,13.25-16.73q-.77,7.53-.79,15.11a11.88,11.88,0,0,0,.67,4.82,6.25,6.25,0,0,0,10.82,1.18,12.65,12.65,0,0,0,1.77-5.55l1.86-12.12,1.05-3.74a21.55,21.55,0,0,0,2.46-5.86l0-.06c0,.06,0,.11,0,.17s0-.06.11-.32c1.12-1.53,1.82-1.18,3-3.09h.32c0,.56,0,1.6.4,1.36a1.46,1.46,0,0,1,2,.34,2,2,0,0,1,.2.76c.11.81.17,1.63.22,2.45,0,.3,0,.58,0,.84a7,7,0,0,0,.13,1.11c.15,7.14-1.16,14.38.07,21.42.34,2,1.11,4.18,3,4.88s4.2-.69,5.53-2.38a19.21,19.21,0,0,0,3.49-9.38,37.43,37.43,0,0,0-1.09-15.18c-.49-1.73-1-3.92.4-5.07,2.31,1,2.71,4.08,3.79,6.38,1.29,2.72,3.77,4.63,6.17,6.44.2.16.41.31.62.46,0,.12.07.25.12.37.81,2,3.28,3.45,5.21,2.48a6.83,6.83,0,0,0,2.2-2.3,4.87,4.87,0,0,1,2.38-2.07,1.85,1.85,0,0,1,2.41,1.4l-.16-.05a107.89,107.89,0,0,1-2.13,21.44c-.43,2.12-.62,4.91,1.33,5.84a3.22,3.22,0,0,0,3.26-.54,9,9,0,0,0,2.13-2.72,93.91,93.91,0,0,0,5.92-12.09,7.68,7.68,0,0,1,1.62-2.82,2.49,2.49,0,0,1,3-.48c.93.63,1.06,1.92,1.1,3l.87,22.08a57.86,57.86,0,0,0,1.28,11.76,19.25,19.25,0,0,0,5.81,10.12c1.27,1.08,3.43,1.84,4.42.49a3.16,3.16,0,0,0,.48-1.48,34.06,34.06,0,0,0-.4-8.18,147.18,147.18,0,0,1-.79-26.13c.06-.91.25-2,1.1-2.32,1-.4,2,.72,2.53,1.72,4.87,9.27,5.66,20,8,30.25a18.68,18.68,0,0,0,1.63,4.86c2.19,4,6.67,6,10.85,7.81.81.34,1.89.63,2.44-.06a2,2,0,0,0,0-1.93c-4.85-14-12.23-27.3-14.25-42a3.11,3.11,0,0,1,.2-2.07c.65-1.06,2.34-1,3.25-.12a6.2,6.2,0,0,1,1.52,3.34c2.51,11,4.14,22.54,10.09,32.13,3,4.82,7.44,9.23,13,10a1.93,1.93,0,0,0,1.93-.48,1.82,1.82,0,0,0,.25-1.08c.11-5.42-3.16-10.26-6.29-14.68l-.06-.82c-.92-1.86-2.56-3.28-3.58-5.08a17.68,17.68,0,0,1-1.5-4q-2.56-9-5.14-18c-.85-3-1.6-6.49.35-8.89,3.29,4.93,5.31,10.57,7.5,16.07s4.62,11,8.55,15.48,9.6,7.68,15.52,7.35a2,2,0,0,0,1.32-.43c.9-.89-.28-2.29-1.26-3.1-4.4-3.65-6.05-9.53-8.77-14.56-2.44-4.51-5.82-8.44-8.65-12.72s-5.17-9.15-5.09-14.28c5.65,2.73,8.14,9.23,10.92,14.86a114.88,114.88,0,0,0,9.78,15.7c2.2,3.08,4.88,6.39,8.64,6.82,1.18.13,2.63-.23,3-1.36a3,3,0,0,0-.21-1.91c-2.17-6-6.67-10.82-10-16.28-2.39-4-4.15-8.27-6.18-12.44-8-16.48-20.09-30.59-32-44.5a24.31,24.31,0,0,0,9.32,2.89c-1.58-3.59-4.09-6.68-6.56-9.73q-9.27-11.42-18.53-22.82a22.28,22.28,0,0,1-3.84-5.95,21.47,21.47,0,0,1-1.19-9.61l.24,0a24.77,24.77,0,0,1,2.84-6l-.09-.07-1.3.08.21-.27-1.55-1a21.93,21.93,0,0,0,4.58-1.77c2.88-1.54,5.36-4.24,5.68-7.49a9.25,9.25,0,0,1,.37-2.74,5.13,5.13,0,0,1,2.29-2.22,23.69,23.69,0,0,1,11.6-3.26c-2.51-6.76-9.18-11.27-16.15-13.09s-15.55.34-22.74.8a127.22,127.22,0,0,1-20.78,7.66l-1.19-.89c4.74-1.21,9.7-2.47,14.92-4l2.57-1.37c-.57-5.07-1.84-13.09,1-17.35a22.24,22.24,0,0,1,5.08-4.93l23.18-18.08a44.13,44.13,0,0,0,8.58-8,24.22,24.22,0,0,0-9.73.73C232.23,112.56,247.16,101.51,258.67,87.25ZM141.52,186.36c-.91.32-1.81.66-2.72,1,.84-.42,1.68-.83,2.53-1.22ZM149.83,235a8.47,8.47,0,0,0-3.71-.62c-2,.21-3.69,1.52-5.52,2.37-2.61,1.22-5.56,1.51-8.28,2.46-3.57,1.25-6.68,3.63-10.29,4.77a10.79,10.79,0,0,1-6.88-.07,14,14,0,0,0,3.33-.44c3.25-.84,6-2.91,9-4.39,7.49-3.66,16.42-3.65,24.19-6.39l1.66.79c-1,.84-1.62,1.38-1.5,1.42.85-.26,1.7-.58,2.55-.92l1,.46c-.09.14-.2.27-.3.4a21.86,21.86,0,0,0-1.46,2A20.09,20.09,0,0,0,149.83,235Zm-29.71-38.72c.07-.38.14-.76.23-1.14l.24.11-.24-.13a8.84,8.84,0,0,1,.25-.88c.75.45,1.49.93,2.22,1.42l-1.32-.34c.5.25,1,.46,1.36.63-.34.34-.68.68-1,1C121.26,196.8,120.69,196.55,120.12,196.31Zm-4,8-.09.13-1.66-.36.23-.14ZM101.49,240.5a9,9,0,0,0,3.13,1.44c1,.32,2.09.63,3.15.91a13.2,13.2,0,0,1-6.69.25,24.87,24.87,0,0,0-2.79-.62Z"/><path class="cls-3" d="M261.68,90.26c2.88-3.62,5.59-7.4,8.82-10.72,3-3.07,6.37-5.68,9.35-8.74,4.13-4.24,10-13,.75-15.65-8.13-2.31-15.69,6.31-20.81,11.29a114.16,114.16,0,0,0-9.22,10.32c-2.72,3.36-5.49,6.83-9.8,8.07L246,90.06c2.71-10.34,13.86-15.64,20.19-23.57,1.5-1.88,2.89-3.85,4.51-5.62,1.77-1.91,3.75-2.91,5.76-4.44,2.93-2.22,4.24-6.28,1.2-9-6.9-6.24-19.73,0-25.45,4.79-8.51,7.19-13,17.87-20.81,25.65l7.1,1.88c-1.24-3.89,3.5-9.59,5.3-12.84,2.07-3.75,3.87-8.46,6.67-11.72,1.35-1.57,3.36-2.48,4.63-4.14a19.64,19.64,0,0,0,1.28-2c1.95-2.18,5.24-4.69,7.13-7.83,3.28-5.43,3.81-12.89-4.29-13.11-7.72-.21-14.6,4.88-19.39,10.49-5.15,6-8.73,13.08-12.08,20.22-.81,1.71-1.6,3.43-2.41,5.14-.36.78-1.33,1.93-1.33,2.74l-.29.56L227,69.37c.72-.38,2.6-5.76,3.11-6.72,1.06-2,2.2-4,3.4-5.89,4.67-7.53,10.16-14.51,15-21.92,1.51-2.33,3.3-5,2-7.83s-4.06-3.44-6.82-3.15c-9.35,1-15.3,5.41-19.17,13.83-2,4.27-3.7,8.65-5.73,12.9-1.7,3.55-4.4,10.5-8.12,12.3l3.27-.43-1-.18,2.54,2c-.54-.72,1.11-5.62,1.32-6.57q.6-2.73,1.32-5.45,1.55-5.88,3.57-11.62c1.68-4.76,5.57-13.55-1.14-16.25-5.17-2.08-10.48,2.3-13.54,6.07-4.34,5.35-6.07,12.09-7.84,18.6L196,60.57c-.49,1.82-1.72,4.34-1.69,6.22-1,2-.7,2.32.86,1q2.33-.48,1-2.66c.26-3.5-1.91-9.14-3.11-12.32a10.14,10.14,0,0,0-3.91-5.35c-4.68-2.87-9.63.35-10.81,5.2-.82,3.37-.49,7.13-.82,10.57a107.09,107.09,0,0,1-2.15,13.06c-.55,2.48,1.2,5.63,4.1,5.38h.16L176,75.26l-.6.79,2.54-2c1.44.81,1.73.62.89-.57a11.91,11.91,0,0,0-.93-1.94,8.22,8.22,0,0,0-2.23-2.32,7.87,7.87,0,0,0-7.37-.57,9.35,9.35,0,0,0-5.24,5.78c-.4,1.21-.66,10.66.41,10h4.29c-.31-.19-1.37-2.12-2-2.63a8.2,8.2,0,0,0-3-1.48,9.24,9.24,0,0,0-7.77,1.82,14.18,14.18,0,0,0-5,7.83,12.28,12.28,0,0,0-.31,4c.14,1.5,1.32,3.18,1.2,4.64l1.25-3-.77.77,3-1.25c-2.74-.33-4.16-1.73-7.2-.65a9.4,9.4,0,0,0-5.48,5.24c-2.37,5.64.62,11.37,5,15l-1.09-4.13-.35,1,6.25-2.54a9.88,9.88,0,0,0-13.13,1.32c-4.21,4.88-1.62,10.2-.17,15.47l.43-3.28a16.1,16.1,0,0,0-4,2.1,12.93,12.93,0,0,0-2.72,5.31,9.66,9.66,0,0,0,0,6.37c.13.31,1.3,2.87,2,2.61l-.85-2.43c-.61.24-1.2.48-1.8.74-3.8.95-6.71,5.57-6.86,9.26-.2,4.65,2.63,6.55,5.91,9l-2-2.54.21.79,1.09-4.14c.93-.14.55,0-1.15.43-.69.23-1.37.48-2,.77a33,33,0,0,0-4.14,2c-2.37,1.4-5.25,3.28-6.81,5.64a6.23,6.23,0,0,0-.54,6.22A6.17,6.17,0,0,0,117,167c.29.19,3.81,1.56,2.41.72l-2-2.54.12.82.42-3.28c-.73,1.35-3.46,2.05-4.54,3.42a9.33,9.33,0,0,0-1.93,5.94c0,5,3.47,7.95,6.51,11.42l6-6c-4.44-4.86-10.21-7.3-15.46-11.08-4.73-3.4-10.49-8-16.64-5.34-12.82,5.56,1.75,21.79,7.73,26.33l-1.95-4.81-.11.62,6.25-2.54-1-.57c-4.79-2.77-8.79,4.3-4.29,7.34l1,.66-2.11-3.67-.07.55,3.12-4.1-.87.22,3.28.42c-9.22-4.7-22.27-8.09-28.08,3.3-2,3.87-2.63,9.18.57,12.6C79,201.33,87,201.65,92,202.85l-3.13-4.1.1.75,5.38-4.1c-3.6-.79-7.36-1.87-11.08-1.75a9.89,9.89,0,0,0-2,.18c1.83.09,2.29,0,1.38-.16a3.88,3.88,0,0,0-2.08-.3,4.49,4.49,0,0,0-4.1,3.12l-.1.27,5.23-3-.52-.09c-5.34-.93-7.66,7.21-2.26,8.2l.52.09-3.12-4.1a5,5,0,0,0,2.45,4l1-7.77.43-.1c-5.55,0-5.39,8.05,0,8.5l.42,0-1.13-8.35c-7.42,2.29-17.52,8.9-15.07,18.15,2.77,10.45,18.77,4.2,25.84,3.86l-3-1.25c1,1,2.25,1.72,3.2,2.77l3-7.26a10.39,10.39,0,0,0-8.44,5.36l2.54-2c-6.72,2.43-21.94,7-21.31,16.39.74,11,15.31,7.83,22,5.79l-3.28-7.77c-6.67,3.32-30.08,16.1-17.82,25.67,10.11,7.88,27.58-5.26,35.72-10.71l-5.15-.67a2.81,2.81,0,0,0,.85.93l.86-6.68c-.91.42-1.81.86-2.7,1.31,1.17.08,1.06.17-.34.26a18.56,18.56,0,0,0-4.72,2.29c-3.64,2.54-7.55,4.78-10.81,7.83-3.52,3.28,1,9.23,5.15,6.68l7.92-4.91-5.16-6.67c-5.83,6.58-14,10.92-17,19.7-2.36,6.92.18,17,9,16.64l-3-7.26c-.55.57-1.09,1.14-1.63,1.72-3.75,4,2,9.79,6,6,.26-.25,2.17-1.73,1.27-1.2s2.66-.94,3-1.08l-5.16-6.68c-4,3.84-10.7,9.1-5.19,14.9,5.28,5.56,11.63.49,16.48-2.5l-5.16-6.68L82,282.85c-3.74,4,2.07,9.84,6,6,.81-.78,1.61-1.57,2.41-2.36l-7.11-4.14c-2,5.08-.7,11.58,4,14.76,5.49,3.68,10.88-1.75,14.38-5.66l-6.68-5.16-.22.35c-3,4.69,4.2,8.66,7.34,4.3,4.17-5.79,8.32-11.48,12.06-17.56l-7.77-3.28a43.63,43.63,0,0,1-3.93,10.23c-1.7,3.1-4,5.86-5.37,9.16-2.16,5.33-.64,10.73,4.27,13.89,11,7.08,21.67-9.08,25.35-17.77l-7.93-2.15c-.61,6.52-2.59,16,.47,22.08a10.55,10.55,0,0,0,14.08,4.72c6.14-3,6.3-10.23,7.21-16.16.7-4.62,1.39-10.73,4-14.71l-7.92-2.15v.17c-.29,5,6.84,5.44,8.35,1.13-.61,1.75,2.35-2,2.65-2.4l-3.67,2.11h.32L140.12,274c.16,4.3,2.78,6,6.87,5.25l-3.28-.43.88.55-2-2.54c2.21,8.24-5.86,33.67,8.32,34.71,6.45.47,10.37-6.31,11.82-11.68a36.49,36.49,0,0,0,1.09-11.25c-.08-1.51-.25-3-.47-4.52-.21-1.33-1.89-5.64-1.09-6.79l-5.82,1.52c1.74,1.17,2.81,6,4.24,7.76a34.06,34.06,0,0,0,6.34,5.52l-1.95-2.54a8.76,8.76,0,0,0,7.66,6.2,7.2,7.2,0,0,0,4.77-1.43,9.5,9.5,0,0,0,1.57-1.47c.34-.42.67-.85,1-1.29q1.35-1.44-2.23-1.11l4.8-6.25-.16-.05a4.29,4.29,0,0,0-5.38,4.1,114.54,114.54,0,0,1-.72,12.56c-.44,3.65-1.67,7.45-1.69,11.13,0,5,4,9.38,9.23,7.72,5.71-1.82,8.48-10.15,10.63-15,.26-.59.52-1.19.77-1.79,1.69-2.06,1-3.05-2-2.94-.29.24.2,5.08.22,5.52l.51,12.88c.27,7,.23,14.24,3,20.78,2,4.65,6.95,11.86,13.06,10,6.67-2,4.46-11.23,3.92-16.26-.46-4.33-.73-8.7-.81-13.06,0-1.87,0-3.74,0-5.61,0-1.24.07-2.49.13-3.74.21-2.08.19-2.48-.06-1.18l-3,1.25,1,.05-3-1.25c3.41,2.74,4.49,10.48,5.38,14.57,1,4.86,1.77,9.78,2.85,14.63,1,4.48,2.58,8.33,6.2,11.32,2.81,2.32,7.54,5.37,11.32,5.6,11.26.71,3.18-14.69,1.3-19.29s-3.88-9.33-5.57-14.09c-.88-2.5-1.71-5-2.4-7.59-.58-2.13-2.21-6.22-1.59-8.47l-2,2.54c-1.54-1-2.08-1-1.62.07.2.75.37,1.5.52,2.26.25,1.11.48,2.22.72,3.33.65,3.05,1.29,6.11,2,9.15a72.17,72.17,0,0,0,5.73,16.08c3.36,6.52,12.3,17.89,21.1,14.74,4.45-1.59,4-6.79,3.05-10.54A29.12,29.12,0,0,0,252,336c-.36-.59-2.07-2.67-2-2.56.23.44-.56-1.66-.38-1.34-1.17-2.15-2.86-4-4-6.1-1.35-2.48-1.84-5.69-2.61-8.38q-1.41-5-2.83-9.9c-.71-2.49-2.35-5.9-.85-8.32H232c5.78,9.14,7.77,20.18,14,29,4.67,6.59,14.21,14.3,23,11.62,3.82-1.17,5.1-5.28,2.9-8.6-1.15-1.76-3-2.93-4.19-4.66a40.58,40.58,0,0,1-3.34-6.32,79,79,0,0,0-7.89-13.07c-3.57-4.94-7.25-10-7.46-16.33l-6.4,3.67c5.76,3.2,7.71,10.32,10.67,15.79a89.39,89.39,0,0,0,11.39,17c3.13,3.51,9.22,7.28,13.89,4.16,4.85-3.25,2.2-8.93,0-12.93-3.19-5.71-7.5-10.65-10.43-16.55-3.14-6.31-6-12.67-9.71-18.68-7.68-12.38-17.22-23.5-26.68-34.54l-5.16,6.68A34.42,34.42,0,0,0,238,259.09c3.49.47,4.89-3.87,3.67-6.4-3.95-8.14-10.83-15-16.49-22-5.94-7.32-13.68-13.84-13-24l-3.12,4.1.24,0a4.17,4.17,0,0,0,3-3,20,20,0,0,1,2.41-5c1.25-2.15.33-4.44-1.53-5.82-1-.77-2.34-.63-3.53-.57l3,7.26.21-.27c1.7-2.19,1.67-5.06-.86-6.67l-1.54-1-1,7.77c4.67-1.44,9.11-3.63,11.69-8,1.09-1.85.92-4.33,2-6,1.6-2.58,7-3.18,9.73-3.33,2.43-.13,5.24-2.67,4.1-5.38-4.36-10.36-14.57-16.6-25.74-16.91a62.33,62.33,0,0,0-9.15.61c-3,.35-6.37.24-9.23,1-3.49,1-6.86,3.07-10.3,4.31s-7,2.32-10.48,3.35l3.28.42-1.2-.88-1,7.77c6.23-1.59,12.8-2.71,18.5-5.76a4.12,4.12,0,0,0,2.11-3.67c-.47-4.06-1.44-8.7-.53-12.75,1.07-4.76,7.17-8,10.75-10.74,8.73-6.81,19.36-13.2,26.34-21.87a4.32,4.32,0,0,0-3-7.26,31.77,31.77,0,0,0-10.86.88l3.27,7.77c15-11.09,30.13-22.32,42.06-36.85,3.45-4.2-2.54-10.25-6-6-11.48,14-25.87,24.84-40.34,35.51-3.72,2.75-1.68,9,3.28,7.78a24.67,24.67,0,0,1,8.6-.58l-3-7.26c-4.1,5.1-9.63,8.84-14.75,12.84q-8.12,6.32-16.23,12.65c-3.79,3-7.16,6-8.3,10.88s-.35,10.09.22,15l2.11-3.67c-4.95,2.64-11,3.52-16.47,4.9-3.86,1-3.79,5.73-1,7.77,4.24,3.14,10.55-.44,15-2,5.36-1.93,9.92-4.14,15.6-4.84,10.17-1.24,23.57-1.52,28.36,9.85l4.1-5.38c-5.32.28-12,1.54-15.92,5.47-1.73,1.71-2,3.34-2.51,5.6-1,4.07-3.32,5.36-7.22,6.56a4.31,4.31,0,0,0-1,7.77l1.54,1-.86-6.68-.21.27c-2,2.62-1.08,7.49,3,7.26l-.76-.59-1.52-5.82a27.59,27.59,0,0,0-3.27,7.05l3-3-.24,0c-1.9.31-3,2.36-3.12,4.1-.64,10.24,4.49,16.37,10.6,23.89,6.75,8.32,15.4,16.67,20.1,26.37l3.67-6.4a22.07,22.07,0,0,1-7.17-2.31,4.27,4.27,0,0,0-5.16,6.68c9.77,11.38,19.6,22.84,27.18,35.84,3.54,6.07,6.06,12.62,9.49,18.73,1.6,2.84,3.51,5.45,5.37,8.13,1.06,1.52,2.12,3,3.06,4.66.41.68.79,1.37,1.15,2.08q1,3.15.8,1.42l2.54-1.95c-3.62,1.42-7.81-6.68-9.34-9a102.26,102.26,0,0,1-6.6-11.14c-3.19-6.35-5.93-12.76-12.44-16.38-2.73-1.52-6.51.36-6.4,3.67.35,10,6.28,16.94,11.62,24.8a83.76,83.76,0,0,1,5.82,10.85,32.9,32.9,0,0,0,3.23,5.5c1.18,1.58,3.07,2.92,4,4.64l-.43-3.28-.29,1,3-3c-7.94,2.55-14.93-8.1-17.69-13.75-3.68-7.54-5.88-15.63-10.4-22.77a4.3,4.3,0,0,0-7.34,0c-2.39,3.85-1.9,8-.78,12.17,1.53,5.73,3.24,11.41,4.88,17.1a26.48,26.48,0,0,0,2.19,5.92,24.69,24.69,0,0,0,2.15,2.95c1.31,1.68.46-.11.91.8,1.05,2.14,2,4.11,3.34,6.24s3.51,5.6,2.85,8.39l2-2.54c-.59.34-4-2.19-4.7-2.75a22.09,22.09,0,0,1-4.47-5.3,53.83,53.83,0,0,1-6.12-15.34c-1.29-4.94-2.19-10-3.35-14.94-.87-3.74-2.64-7.43-6.91-7.87-10.83-1.1-5.21,15.25-3.67,20.2,1.68,5.38,3.82,10.6,6,15.81,1,2.48,2,4.95,3,7.44q.66,1.67,1.29,3.33c.15.4,1.07,3.53,1.2,3l3-3c-.93.35-3.92-1.7-4.69-2.19a9.65,9.65,0,0,1-4.59-5.78c-1.37-4.42-1.88-9.18-2.76-13.71a83,83,0,0,0-3.52-13.46c-1.12-3-2.31-6.86-5.17-8.63a5.59,5.59,0,0,0-7.24.82c-2.34,2.65-1.84,7.14-1.91,10.39a143.4,143.4,0,0,0,.45,14.95c.36,4.38,2,9.82.63,14.11l2-2.54s-2.89-4.72-3.1-5.23a25.28,25.28,0,0,1-1.59-6.7c-.6-5-.55-10.05-.75-15.05-.19-4.76-.09-9.64-.6-14.38-.33-3.13-1.72-6.24-5.17-6.88-8.11-1.5-10.59,11-13.5,16.2-.23.4-1.51,2-1.44,2.46l1.53.82.13-1.12c1.14-1.37,1-5.79,1.26-7.66a119.83,119.83,0,0,0,1-14.91l-5.39,4.1.16.05c3.86,1.24,6.21-3.12,4.8-6.25a6.14,6.14,0,0,0-7.21-3.35,8.08,8.08,0,0,0-3.6,2.31l-1.33,1.71c.32.64.33.63,0,0-.2-.05-2-2.13-2.36-2.49-1.85-1.64-3.54-2.83-4.7-5.1-1.63-3.16-2.13-5.62-5.26-7.72-2-1.35-4.57-.27-5.82,1.53-3.31,4.78.29,11.18.43,16.45a25.66,25.66,0,0,1-1.3,9.76c-.32.82-1.5,3.72-2.41,3.13-.71-.47-.59-4.7-.62-5.38-.23-6,.72-12,.36-18.06-.13-2.11-.15-4.58-1.68-6.22a6.37,6.37,0,0,0-2.75-1.64c-.65-.17-3.35-.75-1.36.09l3,3,0-.11a4.33,4.33,0,0,0-4.25-4.26c-3,0-6.55,3.84-7.5,6.54l8.35,1.13v-.17c.26-4.49-5.74-5.41-7.92-2.15-1.42,2.12-2.42,5.44-3.2,7.91a68.61,68.61,0,0,0-2,10.57,41.89,41.89,0,0,1-1.07,6.51c-1.23,3.84-3.93,3-4.48-.69-.77-5,.3-10.93.77-15.93.38-4.06-6.29-6-7.92-2.14a36.49,36.49,0,0,1-5.73,9.65c-1.82,2.12-8.22,9.21-8.63,2.89-.22-3.49,4-7.6,5.54-10.67a54.28,54.28,0,0,0,4-10.83c1.23-4.68-5.23-7.39-7.77-3.27-3.74,6.08-7.89,11.77-12.06,17.55l7.34,4.3.22-.35c2.58-4-3.43-8.78-6.67-5.16-.69.77-3,3.89-3.56,4.14.06,1.33-.35.83-1.22-1.48a5.2,5.2,0,0,1,.58-3.47c1.64-4.14-4.29-6.91-7.1-4.14L82,282.85l6,6,5.31-5.68c3.21-3.44-.91-9.29-5.16-6.68-1.79,1.1-4.69,2.57-5.46,4.43-.86,2,.85-.09,1.31-.51,1.07-1,2.13-2,3.18-3,3.71-3.57-1-8.53-5.16-6.67a17.93,17.93,0,0,0-6,3.61l6,6,1.62-1.71c2.43-2.57.8-7.42-3-7.26-2.91.11-.8-6.12-.29-7.12a23.08,23.08,0,0,1,5-6.21c3-2.86,6.44-5.36,9.22-8.5,3.07-3.47-.86-9.34-5.16-6.68l-7.91,4.9,5.15,6.68c4.91-4.58,10.93-7.55,16.85-10.35,2.33-1.11,2.88-5,.86-6.68a2.81,2.81,0,0,1-.85-.93,4.24,4.24,0,0,0-5.15-.66c-6.48,4.33-14,9.93-21.84,11.41-2.29.44-4.11,1.05-3-1.5.74-1.66,4.09-3.42,5.53-4.41a78.36,78.36,0,0,1,10-5.77c4.33-2.16,1.31-9.17-3.27-7.78-2.52.77-5.58,2-8.24,1.89-4.33-.16.25-2.24,2-3.2A71.51,71.51,0,0,1,87.27,223a17.43,17.43,0,0,0,3.46-1.33c.73-.5,2-2.6,2.62-2.66,3.68-.36,5.61-4.38,3-7.26-1.35-1.5-3.63-3.56-5.64-3.94-3-.58-7,.61-10,1.12-1.91.33-3.77.59-5.7.79-2.13.23-2.76.7-2.15-1.35.93-3.11,6.12-5.13,8.73-5.94,4.74-1.46,3.58-8-1.13-8.35l-.42,0v8.5a6.63,6.63,0,0,0,1.83-.2c3.73-1.09,3.93-5.7,1-7.77l-.34-.24L84.72,198v-.07c-.2-1.74-1.17-3.74-3.12-4.1l-.52-.09-2.26,8.2.52.09a4.4,4.4,0,0,0,5.23-3l.1-.27-4.1,3.12c-1.17.13,2.4.16,2.8.19a54.16,54.16,0,0,1,8.75,1.54c2.38.51,5.77-1.18,5.38-4.1l-.09-.75c-.24-1.84-1.15-3.62-3.12-4.1-3.41-.82-6.83-1.59-10.22-2.47-2.13-.55-2.5-.06-2.23-2.21a6.57,6.57,0,0,1,2.68-3.77c6.08-4,12.21,4.39,18.21,2.88,2-.51,2.88-2.24,3.12-4.1l.07-.55c.2-1.5-1-2.9-2.1-3.67l-1-.66-4.29,7.34,1,.58c2.17,1.25,5.78.22,6.24-2.55l.11-.62a4.54,4.54,0,0,0-2-4.8,24.28,24.28,0,0,1-6.7-7.18c-.18-.33-2.14-4.21-1.68-4.49.83-.51,5,2.78,5.88,3.36,2.68,1.87,5.35,4.34,8.22,5.87,3.37,1.78,5.7,3,8.35,5.89,3.71,4.06,9.59-1.92,6-6-1.59-1.82-5.17-4.2-3.13-6.55,1.36-1.57,3.42-1.78,4.43-3.93,2-4.36-1.35-6.82-5.06-7.78l2.54,2q-.61,3.28,1.68.3a26.24,26.24,0,0,1,2.74-1.73,39.71,39.71,0,0,1,5-2c2.32-.86,4.52-2.37,4.6-5.14a5.92,5.92,0,0,0-.79-2.94c-.42-.66-3.12-2.15-3.21-2.56-.48-2.21,5.32-3.33,6.67-4.39a6.56,6.56,0,0,0,2.5-6.24c-.55-3.16-3.94-3.9-.16-6.43,2.26-1.5,4.57-2,4.68-5.38a8.84,8.84,0,0,0-.88-3.26c-.54-1.44-2.22-7.78,1.54-5.06,2.37,1.72,5.43-.18,6.24-2.54l.35-1a4.15,4.15,0,0,0-1.09-4.14c-.92-.75-4.12-3.18-3.38-4.73s2.78-.6,3.89-.45a5.32,5.32,0,0,0,5.79-3.25c1.39-3.15-1.12-5-.83-8,.06-.66,1.37-3.87,2.45-3.67a39.76,39.76,0,0,0,2.92,3.22,4.23,4.23,0,0,0,4.29,0c2.44-1.52,3.21-3.71,3.38-6.51.1-1.65-.15-3.23-.2-4.87a16.15,16.15,0,0,1,.12-3.61c.2.5.42,1,.65,1.49,1.77,1.88,2.33,3.78,5.22,4.26s4.74-.83,6.42-3c1.91-2.5-.67-6.65-3.68-6.4l-.16,0,4.1,5.38A124,124,0,0,0,185.89,65c.3-2.69.44-5.38.58-8.08.06-1,.62-2.26-.74-2s-.57.85-.17,2.12c1.75,5.69,1.53,20.61,10.63,19.57,3.27-.38,4.91-2.93,5.86-5.84,1.51-4.65,2.58-9.49,3.87-14.21s2.38-9.76,4.15-14.41A23.57,23.57,0,0,1,213.39,36a13.87,13.87,0,0,1,2.33-2.39,5.35,5.35,0,0,1,1.33-.94c.84-.29.82-.47-.07-.54l-1.24-3c.38,4.53-2.4,9.39-3.74,13.62a147.07,147.07,0,0,0-3.8,14.46c-.66,3.2-2.18,7.47-.57,10.62A5.6,5.6,0,0,0,215,70.23c6.63-2.88,10.53-13.77,13.23-19.88,1.76-4,3.2-8.44,5.5-12.15a10.07,10.07,0,0,1,5.71-4.69c.72-.26,5.39-.78,4.22-1.86l-1.25-3c0-1-1,1.46-1.24,1.89-.78,1.2-1.57,2.38-2.38,3.56-1.46,2.13-3,4.22-4.44,6.33-3.13,4.42-6.27,8.84-9.06,13.49s-12.38,18.88-2.46,21.57c8.58,2.33,12.07-12.14,14.77-17.56a65,65,0,0,1,8.29-13.37A28.08,28.08,0,0,1,252,38.9c1-.61,6-3.34,6.76-2.67l-1.25-3c0,4.85-6,8.63-8.85,11.85-.31.35-.25,1.08-.55,1.41.44-.48-1.67.89-1.92,1.11a19.73,19.73,0,0,0-4.4,5.35c-3,5-5.7,10.24-8.5,15.37-2.39,4.37-4.59,8.63-3,13.66a4.3,4.3,0,0,0,7.11,1.88c5.68-5.63,9.58-12.5,14.41-18.8,4-5.22,13.58-15.14,21.12-10.65l-2.11-3.67.06,1.06,1.25-3c-2.51,2.92-6.28,4.59-8.84,7.7-3,3.63-5.69,7.24-9.2,10.41-6.76,6.12-13.88,11.67-16.3,20.9A4.3,4.3,0,0,0,243,93c6.93-2,11-7.18,15.39-12.56,1.18-1.44,18.6-19,19.4-17.24L277.39,60c-.76,4.29-7.6,8.53-10.62,11.35-4.18,3.91-7.55,8.48-11.1,13C252.29,88.49,258.27,94.54,261.68,90.26Z"/><path class="cls-3" d="M140.39,182.26l-2.72,1,3.28,7.78c.83-.43,1.68-.83,2.53-1.23l-5.15-.66.19.21a4.3,4.3,0,0,0,6,0,4.35,4.35,0,0,0,0-6,1.9,1.9,0,0,1-.19-.21A4,4,0,0,0,141.9,182a4.5,4.5,0,0,0-2.71.5c-.85.39-1.7.8-2.54,1.22a4.17,4.17,0,0,0-1.73,5.31,4.07,4.07,0,0,0,1.73,2,4.16,4.16,0,0,0,3.28.42l2.72-1a4.58,4.58,0,0,0,2.55-2,4.34,4.34,0,0,0,.42-3.27,4.29,4.29,0,0,0-2-2.54A4.2,4.2,0,0,0,140.39,182.26Z"/><path class="cls-3" d="M151,230.93c-6.25-2-10.56,1.72-16.43,3.28a44.24,44.24,0,0,0-8.77,3.4c-3.13,1.59-5.87,3.29-9.47,2.23l-1.14,8.36c6.92-.51,11.75-4.74,18.15-6.8s13.16-2.49,19.55-4.58l-3.28-.43,1.66.79-.86-6.68a13.32,13.32,0,0,0-2.16,2.29c-2.26,3,1.49,7.37,4.8,6.24.86-.27,1.71-.58,2.55-.92l-3.28-.43,1,.46-1.52-5.82c-.6.81-1.2,1.6-1.76,2.44l5.81-1.53a36.72,36.72,0,0,0-4.82-2.3c-5.07-2.06-7.27,6.16-2.26,8.2a17.51,17.51,0,0,1,2.79,1.44,4.35,4.35,0,0,0,5.82-1.52c.57-.83,1.16-1.63,1.76-2.44a4.26,4.26,0,0,0-1.53-5.81c-2.68-1.28-4-.93-6.79,0l4.8,6.25.84-.56c2-1.69,1.5-5.56-.86-6.68-5.47-2.6-12.21.63-18,1.79a51.35,51.35,0,0,0-10.66,3.13c-3.92,1.71-7.35,4.61-11.75,4.93-4.66.34-5.92,6.95-1.13,8.35,5.94,1.74,10.78-.42,16-3.09,3.31-1.67,6.62-2.25,10.08-3.43,2.87-1,5.47-3.37,8.57-2.39C153.93,240.78,156.17,232.57,151,230.93Z"/><path class="cls-3" d="M124.22,197.44c.07-.38.14-.76.23-1.14l-6.25,2.55.24.11a4.62,4.62,0,0,0,3.28.42,4.29,4.29,0,0,0,2.54-1.95,4.34,4.34,0,0,0-1.52-5.82l-.24-.13,2,4.8a8.84,8.84,0,0,1,.25-.88l-6.25,2.54c.75.46,1.49.93,2.23,1.42l3.27-7.77-1.32-.34a4.26,4.26,0,0,0-3.27,7.77c.44.22.9.44,1.36.64l-.86-6.68c-.35.34-.69.68-1,1l4.14-1.1c-.39-.14-.77-.3-1.16-.46l1,.43-.58-.25a4.69,4.69,0,0,0-3.27-.42,4.29,4.29,0,0,0-2.54,1.95,4.24,4.24,0,0,0-.43,3.28,4.1,4.1,0,0,0,2,2.54c.91.39,1.82.78,2.75,1.13a4.15,4.15,0,0,0,4.14-1.09c.33-.35.66-.69,1-1a4.13,4.13,0,0,0,1.17-3.57,4,4,0,0,0-2-3.11c-.46-.19-.91-.41-1.36-.63l-3.28,7.77,1.32.34A4.26,4.26,0,0,0,125,192c-.73-.49-1.47-1-2.23-1.42a4.29,4.29,0,0,0-6.24,2.54,8.84,8.84,0,0,0-.25.88,4.35,4.35,0,0,0,2,4.8l.23.14,4.3-7.35-.25-.11a4.4,4.4,0,0,0-3.78-.21,4.06,4.06,0,0,0-2.46,2.75c-.09.38-.16.76-.23,1.14a4.54,4.54,0,0,0,.43,3.27,4.24,4.24,0,0,0,5.81,1.53A4.19,4.19,0,0,0,124.22,197.44Z"/><path class="cls-3" d="M112.46,202.16l-.09.13,4.8-1.95-1.65-.36,1,7.77.22-.14-3.28.43,1.53.37a4.47,4.47,0,0,0,3.28-.43,4.35,4.35,0,0,0,2-2.54,4.27,4.27,0,0,0-.43-3.28,4.32,4.32,0,0,0-2.54-1.95l-1.24-.3a4.61,4.61,0,0,0-3.78.5,4.28,4.28,0,0,0-2,4.23,4.22,4.22,0,0,0,3,3.54l1.66.36a4.46,4.46,0,0,0,2.77-.22,4.62,4.62,0,0,0,2-1.74l.09-.12a4.25,4.25,0,0,0-1.52-5.82,4.33,4.33,0,0,0-3.28-.43l-1,.43A4.34,4.34,0,0,0,112.46,202.16Z"/><path class="cls-3" d="M99.34,244.17c2.1,1.51,4.84,2.11,7.3,2.78v-8.2c-2.64.71-4.61,0-7.22-.37l1,7.78,3.19-2c4.65-2.87.38-10.23-4.29-7.34l-3.2,2c-2.8,1.74-2.81,7.19,1,7.77a59.36,59.36,0,0,0,5.93,1.06,18.44,18.44,0,0,0,5.81-.69c4.06-1.08,4-7.09,0-8.2-1.78-.48-3.75-.83-5.27-1.92-1.86-1.34-4.73-.32-5.81,1.53A4.33,4.33,0,0,0,99.34,244.17Z"/><path class="cls-3" d="M217.76,188.58s-1.95,7.09-6.24,8.82c3.94,4.43,12.19,1.54,14.44.52a15.42,15.42,0,0,1,.47,2c9.61-9,6.73-17.92,5.26-17.88-9.5.22-13.91,6.23-13.91,6.23a16,16,0,0,1,7.91,8.81A23.5,23.5,0,0,1,217.76,188.58Z"/><path class="cls-3" d="M213.66,187.45c-.7,2.45-1.92,5.11-4.28,6.28s-2.73,4.87-.86,6.68c5.41,5.24,13.27,3.91,19.59,1.19l-6.25-2.54a14.91,14.91,0,0,1,.47,2c.63,3.22,5,4,7.1,1.87,4.12-4.05,7.47-9,8-14.92.28-3.09-.13-7.1-2.78-9.14-3.52-2.72-10.27-.17-13.77,1.63a19.85,19.85,0,0,0-6.77,5.64c-1.35,1.78-.31,4.83,1.53,5.81a12.35,12.35,0,0,1,6,6.28l6.25-4.81a19.1,19.1,0,0,1-6.4-7c-2.49-4.87-9.83-.58-7.34,4.29a28,28,0,0,0,9.45,10.05c2.89,1.95,7.66-1.36,6.25-4.81a21.54,21.54,0,0,0-9.87-11.35l1.53,5.82c-1.19,1.57,1-.85,1.55-1.29a14.21,14.21,0,0,1,2.91-1.66,16,16,0,0,1,2-.66l1.12-.26q2.34.18.51-1c-1.29-2.35-.51,1.39-.72,2.57-.64,3.51-3,6.32-5.43,8.75l7.11,1.88a15.42,15.42,0,0,0-.47-2c-.78-2.9-3.78-3.6-6.24-2.54s-7,2.37-9.29.14l-.86,6.68c4.3-2.13,6.91-6.89,8.19-11.36C223.37,184.44,215.17,182.19,213.66,187.45Z"/></g><path class="cls-4" d="M129.84,187.51l-.24.36c-.09.13.12.29.22.17l.28-.33a.16.16,0,1,0-.26-.2Z"/><path class="cls-4" d="M153,162.32c13.4,14.15,33.36,23.76,49.71,34.38l-.7.9a19.44,19.44,0,0,0,3.8,20.79L224.14,241c2.45,3,4.93,6.08,6.5,9.64a24.19,24.19,0,0,1-9.23-2.86c11.82,13.78,23.78,27.76,31.73,44.1,2,4.12,3.75,8.39,6.12,12.31,3.27,5.41,7.73,10.19,9.87,16.14a3,3,0,0,1,.22,1.89c-.36,1.12-1.79,1.48-3,1.35-3.73-.43-6.39-3.71-8.57-6.76a114.78,114.78,0,0,1-9.69-15.56c-2.76-5.57-5.22-12-10.81-14.72-.09,5.08,2.23,9.91,5,14.15s6.16,8.13,8.58,12.61c2.69,5,4.33,10.81,8.69,14.42,1,.8,2.14,2.19,1.24,3.08a2,2,0,0,1-1.3.42c-5.87.32-11.49-2.89-15.38-7.29s-6.31-9.88-8.47-15.33-4.18-11-7.43-15.93c-1.93,2.38-1.19,5.87-.35,8.81L233,319.32a18.31,18.31,0,0,0,1.48,4c1,1.79,2.64,3.19,3.55,5l.06.82c3.11,4.38,6.34,9.18,6.24,14.55a1.49,1.49,0,0,1-2.16,1.54c-5.56-.81-10-5.18-12.94-10-5.89-9.5-7.5-20.93-10-31.84a6.2,6.2,0,0,0-1.5-3.3c-.91-.84-2.59-.94-3.23.11a3.08,3.08,0,0,0-.2,2.06c2,14.54,9.32,27.72,14.13,41.59a2,2,0,0,1,0,1.91c-.55.69-1.62.41-2.43.06-4.14-1.76-8.58-3.79-10.74-7.74a18,18,0,0,1-1.62-4.81c-2.31-10.11-3.09-20.79-7.92-30-.52-1-1.47-2.1-2.51-1.7-.84.32-1,1.4-1.08,2.3a145.43,145.43,0,0,0,.78,25.89,33,33,0,0,1,.39,8.11,3,3,0,0,1-.47,1.46c-1,1.34-3.12.59-4.38-.48a19.19,19.19,0,0,1-5.76-10,56.78,56.78,0,0,1-1.26-11.65l-.87-21.89c0-1.1-.17-2.38-1.09-3a2.47,2.47,0,0,0-3,.47,7.54,7.54,0,0,0-1.6,2.79,93.72,93.72,0,0,1-5.88,12,8.66,8.66,0,0,1-2.1,2.69,3.21,3.21,0,0,1-3.23.54c-1.93-.92-1.75-3.69-1.32-5.79a106.77,106.77,0,0,0,2.11-21.24l.16,0a1.83,1.83,0,0,0-2.39-1.38,4.79,4.79,0,0,0-2.36,2.05,6.71,6.71,0,0,1-2.18,2.28c-1.91,1-4.36-.48-5.16-2.46s-.39-4.25.22-6.31,1.43-4.1,1.4-6.24c0-.58-.17-1.27-.72-1.43-.75-.22-1.26.7-1.73,1.32-1.15,1.55-3.57,1.7-5.22.72a7.75,7.75,0,0,1-3.17-4.67c-.66-2.29-.67-4.92.72-6.84a11.28,11.28,0,0,0,1.35-1.84A1.63,1.63,0,0,0,155,257c-.69-.41-1.55,0-2.33.23a4.77,4.77,0,0,1-5.35-2.83,6.79,6.79,0,0,1,.8-6.29,11.81,11.81,0,0,1,5.12-4l-.11-1.05a5.53,5.53,0,0,1-7.56-2.41c-1.44-3.26.64-7,2.87-9.73a2.14,2.14,0,0,0,.54-1c.14-1.11-1.3-1.59-2.26-2.15-2.16-1.26-2.48-4.21-2.42-6.7a3.45,3.45,0,0,1,.91-2.7c.59-.47,1.45-.53,2-1.05a2.17,2.17,0,0,0-.1-2.8,9.26,9.26,0,0,0-2.47-1.79,8.29,8.29,0,0,1-4-5.22c-.42-2.23.82-4.84,3-5.38.92-.23,2.23-.4,2.24-1.35,0-.63-.64-1-1.19-1.33a27.13,27.13,0,0,1-9.5-8.5,4,4,0,0,1-.83-1.86,1.54,1.54,0,0,1,.94-1.65c.81-.24,1.85.42,2.48-.15a1.37,1.37,0,0,0,.05-1.63c-.75-1.38-2.35-2.09-3.28-3.36-1.72-2.36-.45-5.86,1.74-7.79s5.06-2.86,7.6-4.31a23.85,23.85,0,0,0,7.86-7.49"/><path class="cls-5" d="M152.78,162.51c7.18,7.57,15.6,13.64,24.4,19.19,4.46,2.82,9,5.52,13.51,8.24,2.33,1.4,4.66,2.81,7,4.25.92.58,2.73,1.34,3.39,2.15.82,1,.32-.22.47.91s-1.09,3.77-1.26,5.13a23,23,0,0,0,0,5.38c.59,5.13,3.18,8.69,6.32,12.6q6.09,7.56,12.21,15.11c4,5,8.47,9.75,11.27,15.54l.61-1.07a26.66,26.66,0,0,1-8.87-2.77.72.72,0,0,0-.87,1.12c8,9.3,16,18.64,22.79,28.82,6.29,9.39,10,20.11,16.19,29.48,1.32,2,2.74,3.89,4.08,5.87,1.09,1.6,4.84,6.23,4.43,8.08-1.4,6.33-8.8-2.62-9.89-4.12-1.81-2.46-3.52-5-5.16-7.59-4.79-7.56-7.34-18.39-15.62-23a.81.81,0,0,0-1.21.7c.27,7.88,4.63,13.92,9.08,20.09s6.57,13.8,11.32,19.49a15.07,15.07,0,0,0,2.13,2.17q-.57,3.6-4,1.66a20.06,20.06,0,0,1-5.61-2.51c-4.43-2.82-7.47-7.3-9.81-11.91-3.88-7.64-6-16-10.65-23.28a.84.84,0,0,0-1.43,0c-2.49,4.2-.66,8.66.59,13,1.7,6,2.68,13,5.63,18.43,2.13,3.95,5,7.33,7.18,11.32.82,1.51,2.52,4,2.27,5.72-.71,5.06-3.31,3.31-5.79,1.88a23,23,0,0,1-7.46-7.78c-3.56-5.59-5.47-12.08-7-18.46-.79-3.29-1.45-6.6-2.16-9.9-.45-2.12-.62-5.17-2.31-6.8-1.3-1.28-3.59-1.58-4.74.11-.82,1.19-.22,3.23,0,4.47a70.65,70.65,0,0,0,2.48,10.21c1.91,6.18,4.44,12.14,6.88,18.12,1.09,2.67,3.84,7,3.85,9.88l.59,1.66a3,3,0,0,1-3.1,0,16.36,16.36,0,0,1-4.65-2.55c-6.1-4.43-6.17-13.59-7.5-20.45-1.13-5.81-2.19-13.26-5.69-18.28-1.15-1.65-2.93-3.23-4.7-1.36-.93,1-.76,3.17-.83,4.31-.21,3.69-.2,7.41-.09,11.11s.36,7.41.75,11.09c.2,1.83,1.64,6.85.72,8.33-3.82,6.14-8.25-5.71-8.75-7.69a55.87,55.87,0,0,1-1.23-11.39q-.27-6.47-.5-12.93c-.13-3.16.45-7.35-.49-10.36-.86-2.76-3.18-3.89-5.67-1.85-1.83,1.5-2.85,5.63-3.76,7.59q-1.06,2.26-2.25,4.47c-.61,1.14-4,8.71-6.63,3.11-.87-1.81,1.3-8,1.54-9.9a116.2,116.2,0,0,0,.86-13.57l-1.32,1,.15.05c.95.3,1.52-.77,1.18-1.53a2.78,2.78,0,0,0-2.76-1.91c-2.06,0-2.09,1.74-3.63,2.36-.74,1.11-1.74.5-3-1.84-2.6-.57-3.41-1.78-2.41-3.63,0-1.5,1.06-3.12,1.28-4.65s.33-2.84-.87-4a1,1,0,0,0-1-.27c-.27.1-1.28.74-1.59.83l-5.47.6a9.38,9.38,0,0,1-2.17-5.89c.06-1.72,3.07-5.12,2.65-7.12-.28-1.29-.88-1.25-1.59-1.82a3.07,3.07,0,0,0-1.41-.08l-5.53-5.07c-.35-2.65,3.78-4.87,5.7-5.83a1,1,0,0,0,.52-.89L154.2,243a1.05,1.05,0,0,0-1.56-.89q-8.43-2.24-5.63-6.86a9.67,9.67,0,0,1,1.43-2.62c.46-.76,1.37-1.46,1.53-2.37a3,3,0,0,0-.52-2.06c-1.45-2.61-4.95-3.36-4.07-7.19.46-2,2.59-2.32,3.19-4.1,1.23-3.63-3.82-4.53-5.31-6.68l-1.54-4.77a7.53,7.53,0,0,1,3.31-2.69c.31-.26,1-.22,1.2-.6a2.42,2.42,0,0,0,.6-1.85c-.19-1.19-1.45-1.67-2.32-2.23-1.95-1.24-8.19-5-8.43-7.72s3.51-1.42,2.87-4.61c-.35-1.71-2.15-2-2.87-3.38-1.12-2.09-.8-5.58.94-7.2a19.61,19.61,0,0,1,4.78-2.82,28.11,28.11,0,0,0,10.84-9.19c.77-1.08-1-2.11-1.78-1-3.1,4.35-6.81,6.65-11.42,9.09-2.19,1.16-4.4,2.45-5.65,4.68a7,7,0,0,0-.79,5.54c.72,2.14,3.38,2.76,2,4.95-.74,1.2-1.66.84-1.69,2.64-.05,2.24,2.8,4.88,4.2,6.3a28.43,28.43,0,0,0,2.61,2.3,26.49,26.49,0,0,0,2.63,1.85q2.44.51.6,1.59c-.57,1-2.5,1.33-3.22,2.78a6.33,6.33,0,0,0,0,5.41c.87,2,6.28,5.32,5.62,7.65.16-.56-2,1.73-2,1.63a5.38,5.38,0,0,0-.44,2c-.27,2.25.08,5.16,1.59,7,.37.44.94.7,1.31,1.13a1.51,1.51,0,0,1,1.35,1.74,21.92,21.92,0,0,0-1.8,2.57,10.06,10.06,0,0,0-1.59,6.54c.8,4.6,5.6,6.09,9.49,4.45l-1.56-.9c.09.86-2.27,1.79-3,2.39a10,10,0,0,0-2.65,3.57c-1.16,2.78-.77,6.26,1.75,8.17,1,.78,2,.73,3.15,1.22,1.5.66,2.23-1.84,1.94,1.77,0,.44-.74,1-.84,1.44-.68,3.28-.86,6.48,1.19,9.43,1.47,2.11,4,3.64,6.59,2.82,1.69-.53,2.08-2.43,2.4-.4.4,2.49-1.39,5.11-1.56,7.63-.18,2.79.91,5.84,3.79,6.8a4.28,4.28,0,0,0,3.22-.12c1.21-.56,4.62-5.59,5.63-3.37l1.17-1.53-.15-.05a1.06,1.06,0,0,0-1.32,1,116.05,116.05,0,0,1-.62,11.64c-.41,3.72-1.59,7.53-1.72,11.26-.09,2.65.79,5.47,4,5.36,4.46-.15,6.86-7.44,8.36-10.58.62-1.3,1.2-2.61,1.77-3.93.06-.12,1.11-2.84,1.25-2.91L188,295c1.33-.22,1.86.23,1.58,1.35.65,1.39.18,4.41.24,6l.28,7c.34,8.62-1.14,26.94,9.16,31.32,4.08,1.74,5.16-1.66,5.15-5.09,0-7.43-1.5-14.84-1.54-22.31,0-1.86,0-3.71.08-5.56.05-1.43-.53-4.75,1.92-3.8,1.15.45,2.17,4.89,2.58,6.09.65,1.89,1.18,3.84,1.65,5.78,1.67,6.88,1.94,14.53,4.52,21.14,1.93,5,7,8.27,11.9,9.85,2.45.79,4.25.21,3.95-2.56-.35-3.11-2.42-6.67-3.59-9.57-1.44-3.55-2.94-7.08-4.36-10.64-1.29-3.27-2.53-6.57-3.59-9.93q-.78-2.5-1.43-5.05c-.53-2.13-1.87-4.73.25-5.81s1.77,1.1,2.19,3c.36,1.64.71,3.3,1.07,4.94.77,3.57,1.56,7.14,2.57,10.65,1.67,5.76,3.93,11.58,7.58,16.4,2.62,3.45,7.7,8.44,12.53,8,4.23-.43,2.14-6.38,1.14-8.89-2.28-5.68-6.71-10-9.13-15.52-1.72-3.87-2.54-8.3-3.71-12.37-1.32-4.63-4.71-11.67-2-16.2h-1.43c5.6,8.83,7.58,19.45,13.48,28.1a26.19,26.19,0,0,0,9,8.49c2.53,1.37,7.56,3.53,10.43,2.12,1.4-.7,1.76-1.43,1.14-3-.75-1.86-3.13-3.27-4.28-4.9a44.12,44.12,0,0,1-3.61-6.83c-4.76-10.14-15.15-18.83-15.56-30.55l-1.21.7c6.39,3.55,8.52,10.8,11.8,16.86a85,85,0,0,0,10.77,16.1c1.87,2.1,6.54,6,9.59,3.58,2.6-2-.08-6-1.26-8.1-3.17-5.66-7.43-10.55-10.35-16.39-3.11-6.26-5.94-12.56-9.63-18.51-7.47-12-16.72-22.79-25.92-33.5l-.86,1.12a29.07,29.07,0,0,0,9.59,3c.58.07.81-.65.61-1.07-4.06-8.35-11.21-15.43-17-22.57-3.46-4.24-7.73-8.47-10.5-13.19-2.64-4.51-4-13-.54-17.54a.57.57,0,0,0-.2-.78c-16.9-10.83-35.56-19.64-49.81-34.08a.27.27,0,0,0-.38.38Z"/><path class="cls-6" d="M156.3,255.93c2.39-5,6.87-8.77,11.83-11.27s10.39-3.84,15.8-5.07"/><path class="cls-6" d="M156.43,256c6.89-9.92,16.52-12.75,27.74-15.52,1.16-.29.67-2-.49-1.79-10.21,2.17-23.43,6.44-27.53,17.19-.07.17.18.25.28.12Z"/><path class="cls-6" d="M164,270.16c4.88-8.65,10.36-17.55,19-22.44"/><path class="cls-6" d="M164.28,270.31c2.75-3.87,4.94-8.09,7.85-11.87,3.24-4.22,7-7.07,11.13-10.3a.48.48,0,0,0-.48-.83c-8.49,3.79-15.41,14.5-19,22.7a.3.3,0,0,0,.51.3Z"/><path class="cls-6" d="M177.65,276.15c3.29-8.17,6.84-16.7,13.68-22.32"/><path class="cls-6" d="M177.77,276.22c2.34-3.46,3.74-7.51,5.83-11.13a43.6,43.6,0,0,1,8.54-10.45c1.11-1-.5-2.54-1.63-1.62-6.48,5.26-11.56,14.91-13,23.09a.14.14,0,0,0,.25.11Z"/><path class="cls-6" d="M150.61,230.45c4,.57,8-.64,12.07-1,6.29-.55,12.56,1,18.68,2.55"/><path class="cls-6" d="M150.56,230.63c4.29,1.34,8.7-.14,13.06-.34,6-.29,11.71,1.28,17.52,2.51a.84.84,0,0,0,.44-1.61,59,59,0,0,0-16.07-2.73c-4.95,0-10,1.15-14.95,1.81-.19,0-.16.31,0,.36Z"/><path class="cls-6" d="M154,243.34c1.63-.1,3.05-1.09,4.46-1.93,7.19-4.29,15.83-5.25,24.16-6.11"/><path class="cls-6" d="M154,243.52c4.51-.15,8.67-3.77,13-5,5.16-1.45,10.48-1.77,15.75-2.62.67-.11.51-1.23-.17-1.2A71.56,71.56,0,0,0,167.53,237c-5,1.36-8.94,4.12-13.59,6.17-.16.07-.08.33.09.33Z"/><path class="cls-6" d="M148.48,215.9A155.43,155.43,0,0,1,180,225"/><path class="cls-6" d="M148.46,216c5.07,1.94,10.59,2.83,15.81,4.36s10.35,3.5,15.52,5.31c.75.26,1.28-1,.55-1.29-9.43-4.25-21.42-8.58-31.86-8.52a.07.07,0,0,0,0,.14Z"/><path class="cls-6" d="M148.1,203c9.92,4.48,20.73,7.52,29.2,14.37"/><path class="cls-6" d="M147.94,203.24c4.86,2.52,9.9,4.53,14.89,6.74s9.43,5.14,14.12,8a.69.69,0,0,0,.84-1.08c-7.61-7.5-19.86-10.56-29.61-14.19-.33-.12-.54.4-.24.56Z"/><path class="cls-6" d="M138.66,185.94a104.78,104.78,0,0,1,33.67,20.3"/><path class="cls-6" d="M138.65,186c5.61,3.4,11.78,5.78,17.41,9.22s10.64,7.65,16,11.56c.54.39,1.12-.45.69-.91-4.48-4.77-10.28-8.68-15.88-12s-11.75-6.74-18.19-7.9c0,0,0,0,0,0Z"/><path class="cls-6" d="M146.1,171.23q13.89,11.93,26.68,25.08"/><path class="cls-6" d="M145.91,171.42c8.49,8.65,17.17,17.48,26.22,25.55a.93.93,0,0,0,1.31-1.31A158.09,158.09,0,0,0,146.24,171c-.26-.18-.54.21-.33.43Z"/><path class="cls-6" d="M189.44,290a121.6,121.6,0,0,1,8.81-28.46"/><path class="cls-6" d="M189.7,290.05c1.75-4.63,2.68-9.58,4.19-14.31s3.66-9.26,5.18-14a.85.85,0,0,0-1.55-.65c-4.64,8.07-8.28,19.57-8.35,28.89a.27.27,0,0,0,.53.07Z"/><path class="cls-6" d="M202.75,265a95.44,95.44,0,0,0-2.5,16,31.63,31.63,0,0,0,2.95,15.72"/><path class="cls-6" d="M202.52,264.86c-3.86,8.45-6.24,24.32-.09,32.3a.9.9,0,0,0,1.63-.69c-1.18-5.31-2.78-9.9-2.62-15.48.15-5.37,1.62-10.66,1.58-16,0-.25-.38-.39-.5-.13Z"/><path class="cls-6" d="M209.69,264.17c-.78,6.74.31,13.53,1.4,20.21.62,3.8,1.38,7.89,4.07,10.5"/><path class="cls-6" d="M209.26,264.05c-1.75,6.05-.5,12.7.42,18.81.67,4.4,1.1,10,5,12.78.77.53,1.58-.48,1.2-1.2-5-9.46-4.73-19.84-5.79-30.27a.44.44,0,0,0-.87-.12Z"/><path class="cls-6" d="M218.23,269l1,5.29a39.4,39.4,0,0,0,2.16,7.94,34.49,34.49,0,0,0,4.41,7"/><path class="cls-6" d="M217.78,269A30.05,30.05,0,0,0,225,290c.88,1,2.57-.3,1.86-1.43-2.2-3.49-4.44-6.55-5.58-10.6-.87-3.1-1.21-6.38-2.67-9.26-.22-.43-.8-.18-.83.22Z"/><path class="cls-6" d="M226.6,266a130,130,0,0,0,9.19,17.46"/><path class="cls-6" d="M226.11,266c-.05,3.11,2,6.32,3.41,9,1.6,3.1,3.25,6.49,5.72,9a.79.79,0,0,0,1.31-.77c-1.1-3.14-3-6-4.6-8.94s-2.59-6.51-5-8.66a.5.5,0,0,0-.84.35Z"/><path class="cls-4" d="M124.41,188.37c16.24-10.78,33.54-13.1,55.51-19.35l2.54-1.36c-.56-5-1.82-13,1-17.19a22,22,0,0,1,5-4.89l23-17.92a43.87,43.87,0,0,0,8.5-7.93,24,24,0,0,0-9.64.72c14.62-10.78,29.41-21.73,40.82-35.86C254,81,256.65,77.26,259.84,74c4.4-4.54,9.82-8.19,13.24-13.51a2.89,2.89,0,0,0,.64-1.8c-.1-1.17-1.42-1.84-2.59-2-3.73-.43-7.05,2.17-9.86,4.66a114.11,114.11,0,0,0-12.94,13c-3.93,4.82-7.78,10.55-13.84,11.92,1.06-5,4.4-9.16,8.09-12.66s7.82-6.54,11.18-10.36c3.74-4.24,6.65-9.56,11.71-12.1,1.12-.56,2.58-1.66,1.9-2.72a2,2,0,0,0-1.18-.7c-5.64-1.64-11.84.23-16.62,3.64s-8.36,8.21-11.7,13.05-6.54,9.82-10.81,13.85c-1.35-2.75.16-6,1.64-8.67l9-16.24A17.62,17.62,0,0,1,240,49.82c1.39-1.52,3.28-2.52,4.58-4.11l.25-.78c4-3.58,8.24-7.52,9.34-12.78a1.84,1.84,0,0,0,0-1.09c-.26-.64-1.06-.84-1.76-.9-5.6-.46-10.88,2.81-14.84,6.8-7.87,7.94-12,18.72-16.88,28.79a6.25,6.25,0,0,1-2.21,2.88c-1.07.61-2.73.33-3.12-.84a3.11,3.11,0,0,1,.27-2c5.21-13.72,15.3-24.93,23.1-37.36a2,2,0,0,0,.43-1.87c-.38-.79-1.49-.75-2.35-.6-4.43.79-9.21,1.77-12.21,5.13a18.47,18.47,0,0,0-2.66,4.33c-4.51,9.34-7.68,19.57-14.44,27.43-.73.84-1.9,1.72-2.83,1.1-.74-.5-.69-1.6-.54-2.48a144.43,144.43,0,0,1,6.58-25.06,33.76,33.76,0,0,0,2.2-7.82,3.17,3.17,0,0,0-.13-1.53c-.66-1.52-2.91-1.27-4.38-.51A19.1,19.1,0,0,0,200.54,35a56.9,56.9,0,0,0-3.85,11.07l-5.75,21.13c-.3,1.07-.71,2.29-1.74,2.69a2.47,2.47,0,0,1-2.78-1.13,7.59,7.59,0,0,1-.94-3.08,93.56,93.56,0,0,0-3-13A8.86,8.86,0,0,0,181,49.58a3.19,3.19,0,0,0-3-1.25c-2.09.46-2.54,3.2-2.59,5.34a107.19,107.19,0,0,1-2.71,21.18h.16a1.84,1.84,0,0,1-2.64.81,4.81,4.81,0,0,1-1.84-2.53,6.54,6.54,0,0,0-1.61-2.71c-1.65-1.37-4.35-.51-5.58,1.24s-1.34,4.06-1.2,6.19.47,4.32,0,6.41c-.14.55-.45,1.19-1,1.23-.78,0-1.07-1-1.39-1.68-.77-1.77-3.09-2.46-4.93-1.87a7.79,7.79,0,0,0-4.14,3.84c-1.14,2.08-1.75,4.64-.82,6.83a11.07,11.07,0,0,1,.9,2.1,1.63,1.63,0,0,1-.85,1.9c-.77.25-1.51-.37-2.23-.74a4.79,4.79,0,0,0-5.85,1.56,6.79,6.79,0,0,0-.63,6.3,11.75,11.75,0,0,0,4.09,5.07l-.34,1a5.53,5.53,0,0,0-7.91.65c-2.14,2.85-.93,6.92.61,10.13a2,2,0,0,1,.31,1.09c-.11,1.11-1.63,1.26-2.69,1.59-2.38.75-3.37,3.54-3.86,6a3.42,3.42,0,0,0,.28,2.83c.47.59,1.29.84,1.7,1.48a2.16,2.16,0,0,1-.73,2.7,9.07,9.07,0,0,1-2.8,1.19,8.24,8.24,0,0,0-5.12,4.18c-.91,2.08-.29,4.9,1.74,5.92.84.43,2.07.89,1.88,1.81-.13.62-.86.87-1.47,1a27,27,0,0,0-11.16,6.15,4.05,4.05,0,0,0-1.23,1.62,1.55,1.55,0,0,0,.55,1.82c.74.42,1.89,0,2.38.71a1.36,1.36,0,0,1-.32,1.59c-1,1.18-2.76,1.51-3.94,2.54-2.21,1.92-1.76,5.61-.06,8s4.66,4,5.05,6.91c.54,4,3.95,7.94,7.16,10.06"/><path class="cls-5" d="M124.54,188.6c9.51-6,20-9.7,30.85-12.61,8.93-2.41,19.18-3.5,27.36-7.84a.53.53,0,0,0,.29-.49c-.49-4.37-1.42-9.25-.36-13.6,1.37-5.59,7.35-8.88,11.61-12.19,8.67-6.73,19.21-13.05,26.14-21.64a.72.72,0,0,0-.5-1.21,28.28,28.28,0,0,0-9.83.74l.55,1.3c10.9-8,21.85-16.09,31.53-25.59a171.19,171.19,0,0,0,13.71-15.76c4.3-5.37,9.61-9.45,14.3-14.42,1.68-1.77,5.72-5.34,3.69-8.1-2.23-3-7.54-.57-9.8.93-5.38,3.58-10.27,8.74-14.53,13.56-4.55,5.16-8.25,11.77-15.28,13.79l1,1c2.9-11.06,14.15-16.42,20.88-24.86,1.49-1.85,2.86-3.81,4.48-5.56C262.54,54,265,52.94,267,51.12c1.08-1,1.72-2,.85-3.35-1.54-2.37-7.56-1.53-9.75-1.09a24.85,24.85,0,0,0-11,5.57c-8.44,7.1-12.84,17.71-20.64,25.41l1.39.37c-1.44-4.5,2.18-9.15,4.25-12.9,1.94-3.52,3.87-7,5.83-10.55,2.6-4.69,7-8.33,10.74-12.09,2.14-2.14,7.82-8.06,6.3-11.65-1.32-3.1-7.34-1.2-9.43-.37-11,4.36-17.1,16.82-21.85,26.85-.9,1.9-2.51,7.94-4.34,9.09l-1.44-.21q-2.49.35-.84-1.67a13.94,13.94,0,0,1,1.31-3c.84-1.78,1.76-3.51,2.73-5.22,3.5-6.15,7.68-11.86,11.76-17.62,2-2.77,4-5.54,5.76-8.41.67-1.07,2.08-2.72,1.39-4.15-1.37-2.85-7.53-.42-9.41.19-6,2-8.4,6-10.91,11.52-2.82,6.22-5.24,12.65-8.8,18.51-.85,1.4-1.88,3.54-3.18,4.56l-.93,1.18-1.39-2.24a9.71,9.71,0,0,1,.53-2.73q1.19-5.91,2.87-11.7c1-3.49,2.23-6.91,3.42-10.34.74-2.15,2.49-5.86,1.53-8.21-1.14-2.79-4.38-2.07-6.5-.88-4.44,2.5-7.25,7.15-9.06,11.77-3.17,8.1-4.92,16.92-7.2,25.3-.17.62-.36,2.42-.79,2.88,0,1.39-.7,1.45-2,.2-1.35,0-2-.58-1.9-1.7-.9-1.68-.88-4.66-1.34-6.54-.67-2.73-1.17-6.61-3.08-8.87-2.2-2.6-5.56-2.19-6.92.92-1.1,2.53-.67,5.9-.87,8.55a109.87,109.87,0,0,1-2.43,16,1.06,1.06,0,0,0,1,1.32h.16l-.9-1.57c-1.28,1.67-3.88-4.17-4.45-4.63a4.47,4.47,0,0,0-3.06-1c-3.06.1-4.85,2.93-5.38,5.62-.44,2.28.39,4.5.1,6.74-.43,3.31-1,1.13-2.64.24-2.41-1.31-5.18-.35-7.06,1.39-2.57,2.39-3.14,5.54-3.21,8.82,0,.49.55,1.14.49,1.6-.49,3.66-.6,1-2.23,1.33-1.13.22-2.08-.07-3.23.41a6.64,6.64,0,0,0-3.76,6.93A9.11,9.11,0,0,0,139,106c.58.92,3,2.83,2.72,3.52l1.53-.62c-3.47-2.5-8.5-1.7-10.15,2.57a9,9,0,0,0-.27,4.67c.15.92,1.14,2.7,1.08,3.54-.23,2.81-3.1,3.26-4.39,5.42-1.54,2.54-1.09,4.64-1,7.26s5.56-.76-1.11,4.09c-.74.54-1.91.75-2.71,1.29-3.23,2.16-5.15,6.86-1.92,10,.79.76,1.94.67,1.67,1.69,0,.19-4.19,1.5-4.77,1.78-2.41,1.15-6.17,3.08-7.65,5.48-1.08,1.74-.61,2.18,0,3.85.16.48,1.42.55,1.45.69.28,1.2-1.57,1.59-2.48,2.4-3.3,3-3,7-.36,10.43,1.09,1.4,2.71,2.46,3.62,4s1,3.52,1.77,5.19a19.55,19.55,0,0,0,6.64,7.46c1.08.79,2.11-1,1-1.78-3.72-2.7-5.42-5.77-6.84-10a11,11,0,0,0-2.58-4c-3.1-3.4-5.15-6.38-.7-10.38,1-.86,2.43-1.13,2.77-2.6.57-2.51-2.72-2.23-2-4.63s8-5,9.94-5.65c1-.35,2.45-.57,2.85-1.74a2.24,2.24,0,0,0-.21-1.83c-1.35-2.62-4.29-1.16-2.77-5.61,1.43-4.18,4.55-3.08,7.13-5.46a3.66,3.66,0,0,0,1.26-2.49c0-1.65-1.35-2.74-1.66-4.32-.72-3.67,1.18-4.26,3.69-6.23.41-.32,1.15-.28,1.49-.71a3.08,3.08,0,0,0,.78-1.84,21.63,21.63,0,0,0-1.48-4c-1.21-4.12,2.67-9.78,6.94-6.69a1.06,1.06,0,0,0,1.53-.62l.34-1a1,1,0,0,0-.27-1c-1.65-1.36-5.18-4.43-4.27-6.94.39-1.07,6.33-3.32,7-3.62,1.39-.59,1.87.85,2.84-1.26.91-2-1.3-5.79-1-7.52a10,10,0,0,1,2.52-4.55l5.71.15c-.49-.23,1.82,2.1,1.75,2.06a1.06,1.06,0,0,0,1.05,0c1.41-.88,1.58-1.89,1.76-3.57s-.4-3.38-.18-5l0-1.62q5.53-5.94,6.94-1.59c2,1.63,3.59,3.66,5.83.73a1,1,0,0,0-.9-1.57l-.16,0,1,1.32c.72-3.26,1.34-6.53,1.79-9.84q.39-2.9.63-5.8c.13-1.63-.22-4.29.31-5.82.35-1-.26-7.32,4.32-2.62,1,1,1.41,4.21,1.77,5.57.94,3.54,1,7.81,2.39,11.17,1,2.34,3.26,4.44,5.66,2.34a5.93,5.93,0,0,0,1.36-2.66c1.6-4.3,2.46-9,3.66-13.45,1.77-6.52,3-14,6.54-19.81,1.11-1.86,8.73-11.65,9.57-4.32.32,2.78-2.32,7.18-3.16,9.71S199.21,65.91,205.92,65c3.76-.49,7.23-8.45,8.69-11.23,3-5.83,5.21-12.07,8.18-17.94,1.88-3.72,4.33-6.3,8.35-7.66a14.24,14.24,0,0,1,4.44-1.09c4,.3,1.66,1.87.49,3.64-3.73,5.68-7.83,11.11-11.6,16.77-1.9,2.83-14.67,20.27-8,22.2,3.11.9,4.68-2.85,5.7-5C224.91,59,227.4,53,230.68,47.5c3.92-6.6,9.57-14.22,17.46-16.13,9-2.18,1.85,7.44-.64,9.94-1.22,1.22-2.5,2.61-3.6,3.79-2.11,2.27-4.56,3.93-6.26,6.59-2.07,3.25-3.76,6.8-5.62,10.17-2.68,4.84-7.62,10.76-5.76,16.61a.84.84,0,0,0,1.39.36c6.51-6.44,10.57-14.71,16.64-21.51a28.6,28.6,0,0,1,11.18-8.19c1.87-.69,5.79-2.11,7.6-1.16,4.32,2.27,1.06,2.85-.55,4.07-3,2.29-5.17,5.49-7.52,8.42a63.4,63.4,0,0,1-7.92,8.05c-5.71,5-11.38,9.92-13.37,17.53a.81.81,0,0,0,1,1c8.88-2.56,13.6-12,19.75-18.23,1.94-2,3.95-3.84,6-5.67a34.07,34.07,0,0,1,5.1-4.12l2.7-1.27,4.17,2.33c.39,1.14-5.3,6.11-6.13,6.89-1.94,1.81-4,3.5-5.87,5.35-7.83,7.67-13.76,17-21.81,24.54-9,8.4-18.83,15.7-28.68,23a.71.71,0,0,0,.55,1.3,27.65,27.65,0,0,1,9.45-.7l-.5-1.2c-3.87,4.81-9,8.35-13.85,12.12q-8,6.28-16,12.58c-3.26,2.56-6.76,5-7.88,9.18a21.06,21.06,0,0,0-.56,5.65c0,2.2,1.15,5.6.64,7.69-.76,3.15-9.14,4-12.3,4.83-5.53,1.45-11.08,2.82-16.58,4.38-10.13,2.89-19.77,6.63-28.59,12.48-.29.19,0,.65.27.46Z"/><path class="cls-6" d="M148.67,97.89c1.21,5.41,4.73,10.09,9,13.64s9.26,6.08,14.25,8.49"/><path class="cls-6" d="M148.52,97.89c1.45,11.34,13.57,18.6,22.94,22.93,1.06.49,2-1.06.93-1.6-10.37-5.29-19-10.09-23.58-21.37-.05-.14-.32-.15-.29,0Z"/><path class="cls-6" d="M159.89,87.44c2.82,9.52,5.66,17.75,13,24.45"/><path class="cls-6" d="M159.61,87.52c1.68,8.61,5.76,19.17,12.92,24.71a.48.48,0,0,0,.68-.68c-3-3.58-6-6.84-8-11.11s-3.24-8.74-5-13.08a.3.3,0,0,0-.57.16Z"/><path class="cls-6" d="M172.15,78c1.87,12,4,23,11.42,32.71"/><path class="cls-6" d="M172,78c-.14,11.34,3.75,24.55,10.75,33.52.79,1,2.54-.32,1.8-1.39a59.34,59.34,0,0,1-8.13-15.88c-1.7-5.34-2.36-11-4.14-16.29a.14.14,0,0,0-.28,0Z"/><path class="cls-6" d="M137.41,121.45c4,.34,7.68,2.43,11.54,3.68,6,2,12.46,1.84,18.77,1.71"/><path class="cls-6" d="M137.36,121.63c5,1.91,10.19,4.4,15.51,5.38a61.53,61.53,0,0,0,14.85.66.83.83,0,0,0,0-1.66c-5.68-.12-11.33.17-16.89-1.26-4.48-1.15-8.69-3.85-13.42-3.49a.19.19,0,0,0,0,.37Z"/><path class="cls-6" d="M144.85,110.67c1.07,1.14,1.51.73,2.69,1.86,6.05,5.8,14.25,8.67,22.18,11.38"/><path class="cls-6" d="M144.73,110.79c5.53,7.16,16.38,11.36,24.83,13.71.78.22,1-.89.32-1.18-4.82-2-9.81-3.41-14.42-5.92-3.74-2-6.72-5-10.52-6.89-.19-.09-.33.12-.21.28Z"/><path class="cls-6" d="M133.89,135.21a138.6,138.6,0,0,0,30.91-1.82"/><path class="cls-6" d="M133.87,135.28c9.72,2.26,21.41.72,31.11-1.21.77-.15.61-1.47-.18-1.38-5.44.62-10.83,1.43-16.29,1.78-4.87.31-9.81,0-14.64.68-.07,0-.06.12,0,.13Z"/><path class="cls-6" d="M128.79,147.65c10.68-2.14,21.9-2.67,31.68-7.45"/><path class="cls-6" d="M128.79,148c10.4-1.35,22.85-1.58,32-7.16.65-.4.23-1.52-.53-1.27-5.2,1.73-10.13,3.55-15.54,4.6s-10.74,1.86-16,3.23c-.32.08-.27.64.08.6Z"/><path class="cls-6" d="M117.74,161.67a94.07,94.07,0,0,0,35.39-11.76"/><path class="cls-6" d="M117.74,161.7c11.65.69,26.11-4.86,35.68-11.29a.57.57,0,0,0-.58-1c-6,2.57-11.62,5.58-17.82,7.65-5.67,1.89-11.65,2.66-17.29,4.58,0,0,0,0,0,0Z"/><path class="cls-6" d="M119.72,178.15q16.22-8.52,31.63-18.46"/><path class="cls-6" d="M119.85,178.38a158.11,158.11,0,0,0,32-17.89.93.93,0,0,0-.93-1.6c-10.64,5.83-21.09,12.49-31.31,19a.27.27,0,0,0,.27.47Z"/><path class="cls-6" d="M188.66,72.45a126.64,126.64,0,0,0,2.07,30.42"/><path class="cls-6" d="M188.4,72.38c-2.07,9.34-1.17,21.55,1.52,30.71.26.88,1.73.76,1.66-.22-.4-5.07-1.44-10.07-1.84-15.15s-.17-10.22-.81-15.27c0-.27-.46-.39-.53-.07Z"/><path class="cls-6" d="M196.49,99.9c.29-6.19.58-12.42,1.94-18.46s2.09-9.75,6.31-14.29"/><path class="cls-6" d="M196.75,100c1.6-6.15,1.58-12.7,3-18.94,1.19-5.19,3.34-8.83,5.76-13.43.38-.73-.44-1.77-1.22-1.22-4,2.84-5.5,8-6.54,12.58-1.52,6.7-2.61,14.18-1.52,21a.27.27,0,0,0,.52,0Z"/><path class="cls-6" d="M205,98.29a53.09,53.09,0,0,1,4.47-17.74,41.51,41.51,0,0,1,6-9.35"/><path class="cls-6" d="M205.41,98.41C207.46,92.26,208,86,211,80.05a61.44,61.44,0,0,1,4.11-6.47c.48-.71,1.34-1.44,1.31-2.38a.92.92,0,0,0-.65-.84c-2.38-.89-6.18,7.25-6.79,8.51-2.83,5.79-5,12.93-4.41,19.42a.45.45,0,0,0,.87.12Z"/><path class="cls-6" d="M210.92,100.23,214,94a55.38,55.38,0,0,1,5.49-9.11c1.2-1.56,2.28-2.25,5.32-4.42"/><path class="cls-6" d="M211.24,100.55c2.85-3.24,4.4-7.53,6.7-11.17,2.19-3.46,4.68-5.47,7.72-8,1-.87-.29-2.53-1.43-1.86a21.27,21.27,0,0,0-7.34,7c-2.6,4-5.41,8.94-6.4,13.65-.08.41.43.8.75.44Z"/><path class="cls-6" d="M219.44,103.86c4.53-5.79,5-7.69,13.22-15.48"/><path class="cls-6" d="M219.57,104.33c2.52-1,4.09-4.18,5.7-6.25,2.51-3.23,5.8-5.92,8.07-9.31.44-.66-.43-1.46-1.08-1.07-3.5,2.1-6.37,5.55-8.84,8.75-1.61,2.09-4.13,4.74-4.47,7.41a.49.49,0,0,0,.62.47Z"/><path class="cls-4" d="M105.71,237.17c1.78,3.3,6.42,3.88,10,2.75s6.66-3.49,10.2-4.73c2.7-.94,5.62-1.22,8.21-2.43,1.81-.84,3.48-2.14,5.47-2.35a8.17,8.17,0,0,1,3.67.61,20,20,0,0,1,9.28,7l.06.07c2.82,13.15,13.35,23.49,17,36.45.64,2.28,1,4.76.22,7s-3.23,4-5.51,3.37a7.44,7.44,0,0,1-2.42-1.39c-2.37-1.79-4.83-3.69-6.1-6.38-1.08-2.28-1.47-5.28-3.77-6.32-1.37,1.14-.88,3.3-.39,5a36.92,36.92,0,0,1,1.08,15,19.05,19.05,0,0,1-3.46,9.29c-1.31,1.68-3.48,3.1-5.48,2.36-1.85-.69-2.62-2.88-3-4.83-1.47-8.42.72-17.11-.38-25.59a1.9,1.9,0,0,0-.2-.75,1.42,1.42,0,0,0-1.93-.34c-.63.37-.22-2.22-.57-1.59-1.8,3.2-2.47.73-5.09,7.28L131,282.43l-1.84,12a12.47,12.47,0,0,1-1.76,5.5,6.2,6.2,0,0,1-10.72-1.17A11.85,11.85,0,0,1,116,294c0-5,.28-10,.78-15a37.11,37.11,0,0,1-13.13,16.57,4.93,4.93,0,0,1-2.2,1,4.49,4.49,0,0,1-2.26-.51,8.15,8.15,0,0,1-4.7-4.47c-1.19-3.53,1.4-7.08,3.47-10.17a45.48,45.48,0,0,0,6.39-14.56q-3.64,6-7.67,11.7c-2.56,3.65-5.29,7.28-8.87,9.93a4,4,0,0,1-3,1.07,3.44,3.44,0,0,1-1.69-1,8.22,8.22,0,0,1,1.5-13,33.77,33.77,0,0,0-4.34,2.94,7.4,7.4,0,0,1-4.89,1.58c-1.74-.22-3.39-1.8-3.12-3.54a5.39,5.39,0,0,1,2.16-3,155.8,155.8,0,0,0,13.37-13.7L100,246.29,94.4,254.8a63.79,63.79,0,0,1-5,6.88,33.23,33.23,0,0,1-12.46,9,7.13,7.13,0,0,1-3.37.71c-2.6-.29-4.22-3.09-4.49-5.69-.49-4.87,2.26-9.52,5.64-13.05s7.49-6.33,10.75-10c1.65-1.84,3.37-4,5.83-4.24A12,12,0,0,1,95,239a13.51,13.51,0,0,0,13.29-4.65"/><path class="cls-7" d="M105.56,237.25c4,5.85,11,2.68,16.08.15a51.8,51.8,0,0,1,9.3-3.32c2.11-.62,3.92-1.91,6-2.54,5-1.53,9.48.62,13,3.89,2.23,2.06,2.53,3.64,3.45,6.43,2.93,8.95,8.83,16.46,12.86,24.88a44.4,44.4,0,0,1,3,7.86q2.37,4.5-2.75,6.44-1.8,4.54-4,2.6c-1.37-.29-2.92-2.14-4-3.22-2.87-2.92-3-7.61-6.46-9.91a.31.31,0,0,0-.43.12c-2.41,3.48.74,9.71.92,13.49a30.32,30.32,0,0,1-1.4,11.55l-1.36,2.93q-1.49,4.09-5.15,1.22c-4.46-1.4-3.84-1.92-4.08-6.69-.33-6.63,1.32-13.57.19-20.14a4.19,4.19,0,0,0-.46-2c-.74-.93-2.12-.26-2.18-1.6a.36.36,0,0,0-.26-.33l-.15,0a.34.34,0,0,0-.39.16c-1.57,2.5-3.57,3.52-4.76,6.49a43.49,43.49,0,0,0-2,6.62c-1.31,5.73-.31,15-5.37,19-5.64,4.51-8.48-4.11-8.9-7.36a29.39,29.39,0,0,1,.09-4.69c.12-3.43.37-6.86.69-10.28,0-.36-.55-.53-.69-.19-2.34,5.51-12.95,23.34-20.32,14.75-4.33-5.05,2.75-12.4,4.86-16.51A49.45,49.45,0,0,0,104.73,267a.4.4,0,0,0-.72-.31c-2.74,4.44-5.57,8.84-8.65,13.06a35.68,35.68,0,0,1-5.3,6.33c-2.58,2.19-5.74,3.8-7.73.38-2.18-3.73-1.29-7.79,2.5-10.54.43-.31.06-1-.42-.73-1.17.69-2.41,2-3.63,2.43-1.18,1.19-2.46.79-3.85-1.18-3.34-.53-4.08-1.38-2.2-2.56,1.12-2,4.06-3.74,5.68-5.39,3.93-4,7.62-8.22,11.37-12.39L97.29,250c.69-.76,2.36-1.53,1.43-2.51A35.52,35.52,0,0,1,96.37,251c-3.17,4.79-6.18,9.82-10.55,13.62-1.9,1.65-4.53,3.9-7,4.64-1.53,1-3.16.61-4.87-1.05-3.54.24-5-1.16-4.46-4.19a14.34,14.34,0,0,1,1.71-5.92c2.71-5.13,7.55-8.47,11.71-12.31,1-.92,1.94-1.89,2.88-2.87,2-2.15,2-2.22,5.54-2.87,2.94-.53,5.18-.07,8-.4a14.34,14.34,0,0,0,9.16-5c.35-.39-.22-1-.57-.58a13.83,13.83,0,0,1-10.07,4.81c-2.21,0-4.44-1.16-6.64-.94-3.66.38-5.94,4.39-8.36,6.69-5.84,5.55-15.41,11.67-14.24,21.08,1,8.21,8.26,6,13.34,2.84,8.39-5.19,13.13-14,18.43-22.05.27-.41-.36-.9-.69-.53-7,7.76-13.74,15.8-21.15,23.15-2.14,2.12-10.68,7.95-4.56,11,2.65,1.31,5.91-.55,7.89-2.25,1.77-1.52,1.7-2.13.15-.57a8.15,8.15,0,0,0-1.84,4.33c-.44,3.59,2,9.39,6.37,8.14,3.21-.91,6.06-5.09,8-7.55a151.38,151.38,0,0,0,8.75-12.85c.64-1,.34-1.09,0,0-.49,1.39-.94,2.76-1.51,4.12a49.5,49.5,0,0,1-4.13,7.78c-1.67,2.62-4.11,5.61-3.79,9,.44,4.71,5.91,8.1,10,5.7a30.49,30.49,0,0,0,7.85-7.39,37.23,37.23,0,0,0,3.06-4.51c.51-.87.85-1.9,1.43-2.71.85-1.18,0,.4-.11,1.44-.62,4.37-1.17,10.2-.23,14.52a6.86,6.86,0,0,0,4.43,5.26c6.64,2.33,8.72-4.88,9.48-9.71.92-6,1.13-14.47,4.92-19.61a41.45,41.45,0,0,1,2.85-3.11c-1,.16,1,1.45.83,1.23,5.84,7.75-1.38,20,2.77,28.81,2.32,4.95,7.11,2.43,9.32-1.2a22.34,22.34,0,0,0,2.74-9.76,37,37,0,0,0,0-6.74c-.13-1.4-1.73-5.78-1.26-6.71l1.3-.48c1.12-.9,1.71-.65,1.76.75,1,1,.29.82.52,1.26a14,14,0,0,0,2.69,3.59c1.83,1.81,4.67,4.67,7.47,4.43,7.87-.67,4-12.06,2.36-16-4.12-9.76-11.23-18.08-14.38-28.28-1.06-3.41-2-5.06-5.06-7.36-2.4-1.81-5.9-3.81-9-3.46-2.53.29-4.72,2.16-7.05,3-2.67,1-5.49,1.29-8.11,2.41-5.44,2.32-13.54,8.6-18.5,1.5-.13-.17-.42,0-.3.17Z"/><path class="cls-4" d="M123.87,187.49c20.39-10.14,42.55-11.3,63-21.26,7.12-.46,15.62-2.6,22.53-.8s13.51,6.28,16,13A23.55,23.55,0,0,0,214,181.64a5,5,0,0,0-2.27,2.19,9.16,9.16,0,0,0-.37,2.72c-.31,3.22-2.78,5.89-5.62,7.42s-6.08,2.15-9.22,2.91c-13,3.16-25.47,9.34-34.89,18.84-3.57,3.6-6.74,7.7-11,10.42-8.68,5.54-20.15,4.41-29.4,8.93-3,1.46-5.74,3.51-9,4.35-4.52,1.17-9.26-.19-13.73-1.55A7.7,7.7,0,0,1,95,236.13a6.44,6.44,0,0,1-1.41-4.67c.08-6.05,3.19-11.61,6.46-16.7,3.58-5.55,7.45-10.9,11.33-16.24,4.12-5.7,8.48-10.49,15.41-11.64"/><path class="cls-4" d="M124.08,187.85c16.76-7.62,34.88-10.18,52-16.56,4.63-1.72,9-3.93,13.92-4.49,3.82-.43,7.68-1,11.52-1.09,9.3-.27,19.19,3.81,22.67,13l1.21-1.59c-5.4.24-13.83,1.59-15.51,7.61-.83,3-1.12,5.09-3.89,7.05a20.66,20.66,0,0,1-6.86,2.74c-4.17,1.09-8.33,2-12.39,3.53A74.35,74.35,0,0,0,166.73,209c-6.83,5.28-11.8,13.45-19.64,17.3s-17,3.22-25,6.59c-3.5,1.48-6.64,4.1-10.34,5.09-3.86,1-15,.35-16.68-4.33s2-11.39,4.29-15.38,5.1-7.93,7.8-11.77c5.2-7.39,10.3-16.62,19.84-18.64,1.24-.26.71-2.15-.53-1.9-6.32,1.29-10.76,4.94-14.67,9.94a229,229,0,0,0-13.36,18.94c-3.31,5.22-7,11.82-6.14,18.27.82,5.92,7.6,7,12.58,7.9,8.09,1.39,13-3.24,20.24-5.78s14.72-2.77,21.73-5.49c6.75-2.62,10.89-7.83,15.86-12.81a67.12,67.12,0,0,1,20.11-13.64,82.6,82.6,0,0,1,13.27-4.59c3.72-.95,7.66-1.6,11-3.62a12,12,0,0,0,5.23-6.09c.8-2.34,1-4.92,3.05-6.54,2.6-2,6.89-2.56,10-2.76a1.27,1.27,0,0,0,1.08-1.89c-3.13-6.74-9.66-11.52-16.82-13.28-4.31-1.06-8.75-.76-13.11-.27-3.88.44-8.17.48-11.67,2.25-19.28,9.75-41.95,10.7-61.26,20.67-.47.24-.06.92.42.71Z"/><path class="cls-8" d="M111.76,251a13.62,13.62,0,0,0,2-3.69c.57-1.28.51-1.35,1.8-1.89s4-1.13,4.21.26c.15,1,1.56,1.72,2,2.63.31.71-.9,1.34-.13,1.25a5.59,5.59,0,0,0,2.12-.86,5.64,5.64,0,0,1-.35-2.53,1.93,1.93,0,0,1,1.66-1.69,2.62,2.62,0,0,1,1.08.28,18.79,18.79,0,0,1,6.19,4.28,1.27,1.27,0,0,0,.39.31c.59.22,1-.63.9-1.24s-.54-1.19-.44-1.8c.2-1.2,1.88-1.26,3.07-1l3.73.77a4.88,4.88,0,0,1,1.9.69c1.11.83,1.29,2.39,1.43,3.77a51,51,0,0,0,3.82,14.91,76.47,76.47,0,0,0-1.85-13.29c-.46-2-.95-4.24.25-5.88,1-1.34,2.73-1.78,4.36-2a8.24,8.24,0,0,1,5,.55,6.71,6.71,0,0,1,3,4.19,29.76,29.76,0,0,1,.73,5.25,40.63,40.63,0,0,0,3.67,13.23A5,5,0,0,1,163,270a3.64,3.64,0,0,1-1.19,2.11,8,8,0,0,1-5.23,2.23,2.58,2.58,0,0,1-1.45-.28c-1.42-.88-.87-3.54-2.4-4.2-1.22-.53-2.48.86-2.63,2.17-.27,2.3,1.26,4.79.17,6.84a6,6,0,0,1-3.05,2.31c-1.53.7-2,1.49-3.5,2.19a4.18,4.18,0,0,1-2.13.5c-.7-.18-.66-.36-.68-1.09A10.13,10.13,0,0,1,141,280c.52-1.51-.39-3.06-.39-4.67s.79-4.65-.89-5.31a4.37,4.37,0,0,0-1.75-.39c-2.8-.25-3.46,3.74-3.45,3.38a7.19,7.19,0,0,1,.56-2.77C132.92,263,131.3,256.39,133,249c-.25,7.43-1,13.84,1.62,21.32.76,2.16-2.52,9.82-4.66,10.66a6.29,6.29,0,0,1-3.2.08l-8.7-1.28a44.53,44.53,0,0,1,5.58-27.6l.35,0c-1,7.25-4.91,13.73-8.71,20-.39.64-.88,1.34-1.62,1.41-1,.08-1.61-.94-2.42-1.48-1-.68-2.35-.6-3.46-1.11a4.76,4.76,0,0,1-2.37-4.63,13.82,13.82,0,0,1,1.76-5.21l5.33-10.82a8.22,8.22,0,0,1-1.63,4.64q-2.49,4.1-5.38,7.94c-.42.57-1,1.19-1.68,1.12s-1.16-.83-1.42-1.51c-1.24-3.26-3.22-4-.48-6.17a11.11,11.11,0,0,0,3.37-5.83c.26-1.12,1.86-1.32,2.1-2,.72-1.95,1.43,1.54,3.51,1.72"/><path class="cls-9" d="M111.79,251c1.38-1.86,2.09-5.06,4.72-5.68.45-.1,6.24,1.4,4.56,3.94a.32.32,0,0,0,.11.41c.86.49,1.92-.33,2.67-.72a.32.32,0,0,0,.14-.36l3.28-2.89a12.38,12.38,0,0,1,2.47,1.65c.94.71,1.73,1.53,2.65,2.25a.41.41,0,0,0,.47.06c1.58-.67.18-.09,1.09-1.52.18-.29-.43-.78-.31-1.06.8-2,4.69-1.61,6.16-.61,3.15,2.15,3.12,6,3.81,9.24a56.52,56.52,0,0,0,3.09,9.82c.15.36.79.37.76-.11-.17-2.59-.41-5.16-.8-7.73s-1.91-6.19-1.58-8.63c.42-3.14,3.73-4.9,6.46-4.62,6.24.64,6.12,5,6.59,8.93a54.25,54.25,0,0,0,1.14,6.92c.5,2,1.44,3.85,1.94,5.81.46,1.77,1.13,3.87.29,5.79-1.68,3.8-5.83,1.47-7.28-.05-1-1.09-.62-2.86-2.82-2.24-1.86.52-1.46,2.66-1.69,4-.59,3.42-.45,6.46-4,8-4.91,2.21-4.25,1.53-4.31-2.36,0-2.64,1.11-11.77-4.53-9.87a4.42,4.42,0,0,0-2.49,2.86c-.5,1.17.93-1.54,1-2.08.23-2.54-1.74-6.28-2.18-8.85-.55-3.29-.23-6.34-.54-9.58-.29-3-.25,2.71-.25,2.68,0,1.17-.08,2.33-.07,3.5a44,44,0,0,0,.41,6.18c.42,2.94,1.88,5.9,1.34,8.84a14.12,14.12,0,0,1-2.3,5.52c-2,2.65-7.85,2.53-11,1.39-5.17-1.85-2.3-12.59-1.22-16.68a46.13,46.13,0,0,1,2.86-7.8c.07-.15,1.33-4.1,1.17-2.22a21.8,21.8,0,0,1-1.09,3.82,47.37,47.37,0,0,1-3.28,7.65c-.86,1.66-2.63,6.31-4.25,7.35s-3.82,0-5.31-.85c-6.21-3.35-3-8-1-12.11.64-1.29,1.27-2.57,1.9-3.86.72-1.47,3.46-6.21,0-.38-1.15,2-2.62,5.22-4.44,6.66-5.37,4.24-4.27-3.61-3.15-5.62.68-1.22,1.49-2.53,2.2-3.73-.39.67,1.91-3.67,3-3.46.59.11,1.77,1.75,2.64,2,.49.16.69-.6.21-.75-3.34-1-2.42-4.16-5.42-.43-1,1.24-.76,2-1.65,3.71s-2.38,2.36-3.16,3.77a2.55,2.55,0,0,0-.29,2.55c.47,1.9,2,5.72,4.47,4.53,1.85-.89,3.52-4.62,4.54-6.18,1.59-2.43,3.06-4.59,3.39-7.52a.37.37,0,0,0-.69-.19c-3.53,7.14-13.26,20.32,0,23.17,2.91.62,2.9,0,4.79-3.13,3.37-5.65,6.33-11.34,7.45-17.89a.4.4,0,0,0-.38-.5c-2.08.1-3.94,7.14-4.46,8.77a46.4,46.4,0,0,0-1.8,19.24c0,.13.09.3.24.32,3.1.46,9.12,2.68,12.17,1.18,1.92-.95,3-3.7,3.78-5.53a9.76,9.76,0,0,0,.46-7.37c-1.66-6.43-1.28-12.82-1-19.38,0-.4-.62-.5-.7-.1a34,34,0,0,0-.27,11.73c.66,4.29,2.21,8.07,1.77,12.39,0,.36.49.46.65.18.67-1.15.52-1.65,1.91-2.42,3.7-2,3.51,2.24,3.49,4.56,0,1.1-.67,7.28.45,8.46.89.94,2.24.36,3.23-.05,2.44-1,6.59-3.07,7.09-6,.1-.56-.49-2.44-.29-3,3-8,2.54-1.26,3.86-.81a6.44,6.44,0,0,0,6.28-.6c2-1.32,2.54-2.49,2.33-4.74-.19-2-1.8-4.07-2.44-6.06a63.39,63.39,0,0,1-2-11c-.82-5.87-5.19-10-11.43-7.07-2.31,1.06-2.95,2.86-2.78,5.3a61.73,61.73,0,0,0,1.18,6.15c.33,1.87.52,3.72.77,5.61.18,1.28.74,3.79-.19.52-.62-2.22-1.33-4.37-1.78-6.63s-.15-5.64-1.36-7.83-4.46-2.58-6.77-2.79c-2-.19-2.28,0-3.53,1.21-.6.58.8,1-.62,1.42-1.26.34-4-2.22-5.21-2.74-2.07-.88-2.91-.73-3.92,1.31-.22.44.12,3.15-1.1,3,.91.14-1-2.45-.63-1.75-1-1.94-1.74-2.86-3.85-2.66-4,.37-3.81,3.47-5.71,6.34,0,0,0,.08.06,0Z"/><path class="cls-10" d="M129,208.31c4-.54,7.95-2.43,10.67,2.06,2.5,4.12-3.12,6.08-3.64,9.85a1.29,1.29,0,1,0,2.55.34c.07-2.8,3.1-4.43,3.62-7.13.34-1.83-.6-3.18-1.7-4.55-3-3.74-7.74-4.15-11.72-1.4-.32.22-.26.9.22.83Z"/><path class="cls-10" d="M140,209.78c-2.55-.31-4.49,1-6,2.95-1,1.24-3.5,4.4-.72,5.23a1.2,1.2,0,0,0,.92-2.19l-.2-.14.57.74c-.21-.73,1.26-2.69,1.7-3.29a6.06,6.06,0,0,1,3.77-2.53.39.39,0,0,0,0-.77Z"/><path class="cls-10" d="M139,209a17.48,17.48,0,0,0-6.12.17c-1.66.37-3.79.79-5.08,1.94a1.33,1.33,0,0,0,.26,2.07c1.1.69,2.65-.81,3.6-1.25a40.1,40.1,0,0,1,7.42-2.38c.33-.07.21-.51-.08-.55Z"/><path class="cls-11" d="M203.76,196.9a51.32,51.32,0,0,0-7.54.77c-7.25,1.62-14.72,3.33-20.76,7.66a54.91,54.91,0,0,0-5.14,4.37l-9.86,9.07c-2.53,2.33-15.72,12-15.17,12.16,12.16-3.79,24.27-16.66,34.2-21,6.65-2.91,6.92-3.23,10.57-4.4a78.94,78.94,0,0,1,11-2.58,24.45,24.45,0,0,1,2.81-6"/><path class="cls-10" d="M220.77,195.51c.17.1-10.39,5-15-.21,4.29-1.73,6.24-8.82,6.24-8.82A23.35,23.35,0,0,0,220.77,195.51Z"/><path class="cls-12" d="M220.66,195.45c-.45.58-2.3.9-3,1.1a19.51,19.51,0,0,1-5.92.86,8.94,8.94,0,0,1-4-.94c-1.51-.82-1.39-.83-.4-1.73a14.66,14.66,0,0,0,3.1-3.77c.51-.9,1.62-2.64,1.65-3.72s0,.07-.36-.57c.18.33.4.65.56,1,1.62,3.39,5.18,6.27,8.32,8.12a.32.32,0,0,0,.32-.55,22.74,22.74,0,0,1-8.66-8.93.33.33,0,0,0-.6.08c-.94,3.35-2.82,7.09-6.08,8.64a.32.32,0,0,0-.06.49c2.48,2.49,5.95,2.76,9.27,2.16,1.4-.25,5.16-.77,6.08-2.1C221,195.44,220.76,195.32,220.66,195.45Z"/><path class="cls-4" d="M210.25,174.38a2.17,2.17,0,0,0,1.62,3.94,2.18,2.18,0,1,0-2.26-3.32"/><path class="cls-12" d="M210.19,174.28a2.32,2.32,0,0,0-.47,3.63,2.36,2.36,0,0,0,3.59-.23,2.45,2.45,0,0,0-.45-3.47c-1-.71-2.91-.55-3.51.64a.3.3,0,0,0,.47.36,2.14,2.14,0,0,1,2.46-.65,1.72,1.72,0,0,1,.73,2.52,1.78,1.78,0,0,1-2.62.64,2.05,2.05,0,0,1,0-3.25c.11-.09,0-.26-.15-.19Z"/><path class="cls-4" d="M121.91,187.32a92.72,92.72,0,0,0-15.77-16.21c-3-2.44-6.24-4.69-9.43-6.93-2.6-1.83-5.7-3.74-8.73-2.8A3.82,3.82,0,0,0,85.32,164a5,5,0,0,0,.08,2.14c1.54,7.55,8,13.12,14.67,17s14.09,6.6,19.94,11.62c-12.42-2.61-21.79-13.42-34.11-16.5a14,14,0,0,0-7.1-.23,10.58,10.58,0,0,0-7.26,8.6c-.26,1.69,0,3.65,1.31,4.7a6.11,6.11,0,0,0,2.43,1L115.69,202l-17.81-3.86L83.59,195a22.86,22.86,0,0,0-7.16-.77,17.78,17.78,0,0,0-6,2c-4,2-8,5.45-8,9.91a3.82,3.82,0,0,0,1.45,3.28,4.47,4.47,0,0,0,1.9.57c5.09.62,10.14-1.07,15.23-1.65,11.11-1.27,22.27,2.76,33.42,1.9a74.66,74.66,0,0,0-45.84,10.42c-2.1,1.27-4.39,3.18-4.06,5.61a4.31,4.31,0,0,0,2.77,3.23,9.63,9.63,0,0,0,4.4.46A52.69,52.69,0,0,0,84,227l26.65-8.81C94.64,221.91,78.4,227,66,237.66a11.62,11.62,0,0,0-3,3.49,4.5,4.5,0,0,0,0,4.44,5.42,5.42,0,0,0,4.18,2c3.68.33,7.31-.92,10.68-2.43,7.46-3.33,14.25-8,21-12.6l9.13-6.26a21,21,0,0,0,4.33-3.57,19.87,19.87,0,0,0,3.37-6.93,159.75,159.75,0,0,0,6.52-29Z"/><path class="cls-7" d="M122.05,187.23A94.84,94.84,0,0,0,95.55,163c-6-3.66-12.56-1.81-9.56,6,3.78,9.79,14.08,14.42,22.74,19,2.75,1.44,6.23,2.86,8.52,5,1,.92,2.55,1.12-.08.67a21.42,21.42,0,0,1-5.51-2.24c-5.28-2.61-10-6.14-15.15-9-6.69-3.79-17.52-8.7-23.25-.81-1.64,2.27-3.14,6.27-1.51,8.9,2.07,3.33,9.7,3.6,13.07,4.42L106,200c1.6.39,7.19,2.43,8,1.36-.5.65-9.2-2-10.68-2.33-6.54-1.45-13.07-3-19.63-4.28-5.46-1.11-9.84-1-14.76,2-5.79,3.47-11,13.83-.58,13.77,7.43,0,14.42-2.39,22-1.82,8.09.63,16,2.41,24.15,2a.35.35,0,0,0,0-.7A76.91,76.91,0,0,0,84,213.25a74.82,74.82,0,0,0-13.36,5.84c-2.27,1.27-5.85,3-6.39,5.93-1.21,6.53,8.52,5.34,12,4.57,11.65-2.56,23.14-7.33,34.45-11.11a.32.32,0,0,0-.17-.61c-13.77,3.3-27.8,7.37-39.58,15.52-3.2,2.22-9.81,6-8.88,10.78.77,4,5.62,4.07,8.78,3.61,6.92-1,13.64-5.38,19.42-9.05,6.44-4.09,12.92-8.36,19-12.9,4.67-3.45,6.2-8.07,7.82-13.48a166,166,0,0,0,5.39-25.43c0-.39-.47-.71-.69-.29l-.26.49c-.22.44.43.82.66.39a33,33,0,0,0-1.4,5.64c-.42,2.45-.89,4.88-1.43,7.3a123.85,123.85,0,0,1-4.64,16.71c-2.18,5.84-6.66,8.54-11.58,11.92-4.41,3-8.79,6.11-13.31,9A80.91,80.91,0,0,1,76,245.51a20.86,20.86,0,0,1-7,1.76c-3.52.12-8.76-.84-4-8.32,1.53-2.37,5.3-4.38,7.6-5.9,8.2-5.41,17.48-9,26.89-11.72,2.38-.68,4.77-1.3,7.18-1.89,3.58-.88,2.18-1-.61-.11l-16.88,5.58c-4.61,1.53-9.23,3.33-14,4.24.65-.13-4.15.86-5,.54-9.76-3.71-3.32-7.56-.72-9.17A62,62,0,0,1,76.32,217a74.5,74.5,0,0,1,33-6.69c1.48,0,5.9.09,1.4-.25-2.48-.19-5-.23-7.43-.51-5.56-.61-11.1-1.65-16.71-1.74a46.19,46.19,0,0,0-7.34.49c-3.16.46-6.94,2-10.06,1.51-1.86-.28-5.49-1.59-6.4-3.62-1.19-2.63,3.48-6.87,5.18-8.06a17.8,17.8,0,0,1,10.26-3.55c6.37.08,13.34,2.57,19.57,3.91,5.93,1.27,11.88,2.51,17.81,3.83a.31.31,0,0,0,.16-.59c-9-2.2-18-4.34-26.94-6.51-3.74-.9-8-1.37-11.55-2.79-4.72-1.89-6.79-4.77-4.16-9.42a10,10,0,0,1,5.77-4.71c7.8-2.26,16.94,4.3,23.21,8.2,5.64,3.52,11.3,7,17.83,8.52.28.06.57-.32.31-.54-10.12-8.25-26-11-32.63-23.17-.9-1.66-2.25-4.32-2.09-6.24q5-4.64,9-1.88a21,21,0,0,1,2,1.33c3.19,2.18,6.33,4.48,9.35,6.89a103.26,103.26,0,0,1,15.91,16.06C121.91,187.57,122.16,187.38,122.05,187.23Z"/><path class="cls-8" d="M104.18,169.56a15.22,15.22,0,0,0-8.72,11.87A10.87,10.87,0,0,0,87,194.89a1.45,1.45,0,0,1-.42,1.88,12.46,12.46,0,0,0-3.6,5.86,6.33,6.33,0,0,0,1.9,6.32c.81.64,1.84,1.05,2.38,1.93-2.36-.12-4.41,1.89-5.11,4.15a14.48,14.48,0,0,0,.14,7c.39,2,.93,4.08,2.43,5.43-1.61,1.29-1.14,3.82-.51,5.78l1.39,4.39a1.28,1.28,0,0,0,2.09.83A39.22,39.22,0,0,0,97.6,233a3.6,3.6,0,0,0,1.71-2.35,4.35,4.35,0,0,0-.37-1.68,15,15,0,0,1-.81-5.23,4.28,4.28,0,0,1,.8-2.76,9.22,9.22,0,0,1,1.45-1.18c2.47-2,2.49-5.7,2.77-8.88a2,2,0,0,1,.42-1.27,10.24,10.24,0,0,1,1-.67,2.69,2.69,0,0,0,.71-1.33l1.64-5.48a3.37,3.37,0,0,1,.82-1.59A4.38,4.38,0,0,1,109,200a7.76,7.76,0,0,0,4.18-4.42c.64-1.77.62-3.74,1.35-5.47.88-2.11,2.77-3.65,3.84-5.68.21-.42.29-.38.28-.84s-1-1.1-1.38-1.51c-5.18-5.38-8.07-8.53-13-12.4"/><path class="cls-9" d="M104.08,169.38a15.53,15.53,0,0,0-6.44,5.44,28.7,28.7,0,0,0-1.89,3.86c-.93,2-1.51,2.32-3.23,3.47-2.21,1.47-4,2.91-5.16,5.41-1.68,3.73-.84,7.35-2.77,11.14-1.16,2.29-2.36,4-1.93,6.72.33,2,2.63,3,3,4.37.42,1.67-2.15,2.1-3.12,3.78-1.59,2.76-1,6.37-.29,9.29.46,1.91,1.47,3.52,1.53,5.44.09,3.1,0,5.54,1.31,8.7,1.84,4.6,8-.49,10.73-2.3,1.51-1,3.41-2.12,3.81-4,.45-2.1-1.77-4.65-1.18-6.91s2.37-3.55,3.45-5.32a10.18,10.18,0,0,0,1.21-3.93,19.36,19.36,0,0,1,1.67-5.27c1.53-3.45,2-6.76,4.89-9.35,2.27-2,3.54-3.18,4.26-6.33a16.48,16.48,0,0,1,3.11-6.76c.53-.74,1.78-1.85,1.81-2.77.06-2-3.14-4-4.33-5.3a101.27,101.27,0,0,0-9.95-9.37c-.41-.34-1,.25-.58.58a101.48,101.48,0,0,1,8.46,7.6,42.68,42.68,0,0,1,4.62,4.7c1.78,2.47.15,3.23-1.34,5.38-2.57,3.69-1.87,8.73-5.75,11.56-3.17,2.31-2.45,1.51-4.08,5.67-1.52,3.89-2.76,4.86-3.26,8.85-.47,3.7-3.56,5.36-4.6,8.55a9.64,9.64,0,0,0,0,4.24c.39,2.52.83,2.18-.66,4.89-1.19,2.16-1.45,2.49-3.31,3.61-.92.56-1.86,1.08-2.83,1.56-2,1-2.91,1.95-4.67.57-2.14-1.68-3.35-7.28-1.61-9.42a.31.31,0,0,0,0-.42c-3.34-3.95-5-15.16,2.33-16.08a.3.3,0,0,0,.21-.51,13.43,13.43,0,0,1-1.16-1.09,3.86,3.86,0,0,1-1.82-2.93c-1.54-1.39-1.81-2.9-.83-4.54.47-2.69,2.93-3.71,3.7-5.93C87.8,195,87,193.09,87,192c.08-5.13,3.79-8.95,8.55-10.25a.29.29,0,0,0,.2-.2,15.53,15.53,0,0,1,8.56-11.76c.25-.12,0-.48-.21-.36Z"/><path class="cls-10" d="M139.56,226.62a15.23,15.23,0,0,0,3.82-.71,6.25,6.25,0,0,1,6.68,1.64,9.15,9.15,0,0,1,2.84,4.24c.41,1.28.46,1.62,1.54,2.37a.92.92,0,0,0,1.38-.79c.22-3.58-2.63-6.86-5.41-8.74-4-2.69-7-.46-11,.94-.55.19-.5,1.07.14,1.05Z"/><path class="cls-10" d="M149,226.58a9.2,9.2,0,0,0-.4,2.86c0,.87,0,1.89.82,2.38a.71.71,0,0,0,1-.42c.19-.79-.27-1.26-.52-2a5.18,5.18,0,0,1-.16-2.62.4.4,0,0,0-.77-.21Z"/><path class="cls-10" d="M147.26,225.32a9.47,9.47,0,0,0-5,2.6c-.52.59.17,1.68.89,1.16a24.12,24.12,0,0,1,4.43-2.93c.49-.21.13-1-.35-.83Z"/><path class="cls-9" d="M94.52,180.29a99.91,99.91,0,0,0,19.68,11.5c.2.08.38-.2.17-.3-6.94-3.27-13.27-7.31-19.78-11.33-.08,0-.15.08-.07.13Z"/><path class="cls-9" d="M86.77,196.18c6.25,1.92,12.65,3.39,19,4.75,0,0,.05-.05,0-.06-6.38-1.48-12.66-3.25-19-5a.16.16,0,0,0-.09.31Z"/><path class="cls-9" d="M87,210.43a54.14,54.14,0,0,0,17.91-.62c.13,0,.08-.22-.05-.2a71.34,71.34,0,0,1-17.82.47c-.2,0-.25.33,0,.35Z"/><path class="cls-9" d="M84,225.45a38.92,38.92,0,0,0,15.13-3.72c.09,0,0-.21-.08-.17a84.92,84.92,0,0,1-15.08,3.7c-.1,0-.08.19,0,.19Z"/><path class="cls-9" d="M149.43,270.09c-.75-3.43-1.75-6.81-2.49-10.26-.05-.26-.42-.14-.39.11a37.2,37.2,0,0,0,2.75,10.21c0,.07.14,0,.13-.06Z"/><path class="cls-9" d="M133.15,249.92c-.35,6.74,2.24,13,3.26,19.59,0,.11.21.09.19,0-.84-6.6-3.5-12.83-3.33-19.56a.06.06,0,0,0-.12,0Z"/><path class="cls-9" d="M124.13,248.86a92.44,92.44,0,0,1-10.43,20.85c-.13.19.17.35.3.17a64.15,64.15,0,0,0,10.32-21c0-.12-.15-.17-.19,0Z"/><path class="cls-9" d="M106.07,260.41c5.09-3.85,7.78-9.94,12.49-14.2.13-.12-.07-.31-.2-.2-4.94,4-7.51,10.15-12.42,14.23-.1.07,0,.24.13.17Z"/><path class="cls-9" d="M146.73,251.14a131.49,131.49,0,0,0,3.16,19.34c0,.16.28.09.25-.07-1.2-6.42-2.45-12.77-3.19-19.27,0-.14-.24-.14-.22,0Z"/><path class="cls-9" d="M84.16,225.5c6.49-1.34,13-2.17,19.55-3,.26,0,.28-.43,0-.42a103.62,103.62,0,0,0-19.63,3.14.16.16,0,0,0,.08.3Z"/><path class="cls-9" d="M85.24,211.3a119.81,119.81,0,0,0,15.74,0,.17.17,0,0,0,0-.34,119.85,119.85,0,0,0-15.74.21.08.08,0,1,0,0,.16Z"/><path class="cls-9" d="M86.9,198.3c6.83,1.4,13.7,2.64,20.63,3.49.23,0,.29-.38,0-.41-6.89-1-13.76-2.09-20.61-3.34-.17,0-.24.22-.07.26Z"/><path class="cls-9" d="M97.55,182.15l-.15-.25a.12.12,0,0,0-.1-.06l-.33,0a.21.21,0,0,0-.2.19c-.24,1.9,3,3.37,4.33,4a33,33,0,0,1,10.42,6.73.22.22,0,0,0,.31-.31,23.43,23.43,0,0,0-7-5.35c-1-.52-2.1-.93-3.16-1.39a17.66,17.66,0,0,1-2.14-1.05c-1.18-.73-1.39-1.39-2.18-2.38.08.09.22,0,.16-.13Z"/><path class="cls-9" d="M95.81,181.18c3.8.26,6.73,4.36,10,6.12a41.29,41.29,0,0,0,8.76,3.36c.18.06.25-.21.07-.28-4.26-1.61-8.51-2.92-12.15-5.78-2.13-1.68-3.84-3.5-6.68-3.6-.12,0-.11.17,0,.18Z"/><path class="cls-13" d="M75.63,194.22a.38.38,0,0,0,.33.08c.1,0,.17-.16.06-.21a.44.44,0,0,0-.37,0,.09.09,0,0,0,0,.17Z"/><path class="cls-7" d="M74.08,194.86c1.53.21,3.07.24,4.61.37,1.73.15,3.52.71,5.24.53.34,0,.55-.51.19-.7a12.12,12.12,0,0,0-4.68-.91,19.65,19.65,0,0,0-5.36.14c-.27.05-.28.53,0,.57Z"/><path class="cls-7" d="M104.94,211.62a58.07,58.07,0,0,0,11.79.39.66.66,0,0,0,0-1.31,57.71,57.71,0,0,0-11.68.09c-.43.05-.62.75-.11.83Z"/><path class="cls-7" d="M109.69,201.45a26.47,26.47,0,0,0,9.84-.11c.39-.08.3-.69-.1-.69-3.23.06-6.41.23-9.65.14-.37,0-.47.6-.09.66Z"/><path class="cls-7" d="M115.07,191.9a8.94,8.94,0,0,0,6.16,1.76c.43-.06.39-.75,0-.84-1-.24-2-.24-3-.46a23.51,23.51,0,0,1-2.93-.89c-.26-.09-.39.29-.18.43Z"/><path class="cls-7" d="M70.83,229.4c4-.55,9.14-1,12.64-3.17.34-.21.24-.87-.22-.81-2.42.29-4.81,1.34-7.17,2a38.18,38.18,0,0,0-5.36,1.76c-.16.07,0,.28.11.26Z"/><path class="cls-7" d="M99.79,223.48c4.52-.15,9.51-.4,13.69-2.28a.39.39,0,0,0-.19-.72c-2.35.26-4.64.9-7,1.19a56.36,56.36,0,0,0-6.6,1.07.38.38,0,0,0,.09.74Z"/><path class="cls-7" d="M77.88,247.44c4.81-4.92,12-7.73,17.92-10.95.26-.15.08-.61-.21-.5a61.48,61.48,0,0,0-9.83,5.26c-2.72,1.72-6,3.53-8.08,6-.12.13.07.33.2.2Z"/><path class="cls-7" d="M73.34,273.19c5.73-4.69,10.65-10.63,16-15.73s11.29-9.86,16.64-15.09c.35-.33-.11-1-.52-.68-6.08,4.41-11.56,9.73-17,14.91S77.2,266.86,72.91,272.86c-.19.27.21.51.43.33Z"/><path class="cls-7" d="M79.12,281.47a112.25,112.25,0,0,0,20.81-22.39c.21-.3-.25-.64-.5-.39-7.06,7.2-13.82,15-20.49,22.6-.11.12.06.28.18.18Z"/><path class="cls-7" d="M92.44,284.34c5.23-5.74,9.68-13.59,13.28-20.45a.24.24,0,0,0-.42-.25c-2.38,3.28-4.32,6.91-6.44,10.35s-4.54,6.76-6.51,10.28a.06.06,0,0,0,.09.07Z"/><path class="cls-7" d="M115.32,285a34.71,34.71,0,0,0,.9-6.27,36.14,36.14,0,0,0,.44-7.26.33.33,0,0,0-.65-.09,31.74,31.74,0,0,0-.75,6.32A40.06,40.06,0,0,0,115,285a.16.16,0,0,0,.32,0Z"/><path class="cls-7" d="M112.32,250.25a21.67,21.67,0,0,0,1.48-3.86,10.61,10.61,0,0,0,1.15-4,.34.34,0,0,0-.63-.18,27.63,27.63,0,0,0-1.73,4.07,6.11,6.11,0,0,0-.69,3.91.23.23,0,0,0,.42.06Z"/><path class="cls-7" d="M122.53,248.07c.52-1.41,1-2.82,1.36-4.27s1-2.85,1.29-4.3a.43.43,0,0,0-.79-.33c-1.48,2.51-2,6-2.21,8.86,0,.21.28.22.35,0Z"/><path class="cls-7" d="M132.75,247.07c1.91-3.48,1.89-8.32,1.65-12.18,0-.35-.59-.48-.65-.09-.3,1.93-.33,3.87-.49,5.82-.18,2.14-.64,4.23-.86,6.36,0,.19.27.25.35.09Z"/><path class="cls-7" d="M144.1,249.66c.35-2.23-.27-4.44-.69-6.64-.53-2.73-.75-5.46-1.15-8.2-.09-.6-1-.55-1.17,0a16.14,16.14,0,0,0,.4,7.24,43.57,43.57,0,0,0,2.18,7.66.24.24,0,0,0,.43-.06Z"/><path class="cls-10" d="M225.92,180c1.47,0,4.34,8.89-5.27,17.88A15.91,15.91,0,0,0,212,186.18S216.42,180.17,225.92,180Z"/><path class="cls-12" d="M225.85,180.21c1.21.24,1.31,3,1.33,3.93a14.83,14.83,0,0,1-1.73,6.93,17.07,17.07,0,0,1-3.18,4.58c-1.15,1.08-.88,1.43-1.7.12-1.11-1.75-1.46-3.68-2.82-5.4a13.05,13.05,0,0,0-3.81-3.52c-1.5-.76-1.84-.38-.53-1.64,3.48-3.36,7.86-4.38,12.51-5,.34,0,.37-.55,0-.56-5.1-.16-11.08,2.14-14.24,6.33a.38.38,0,0,0,.13.51,16.07,16.07,0,0,1,8.49,11.41.37.37,0,0,0,.61.17c3.6-3.55,6.75-8,6.89-13.29,0-1.25,0-4.81-1.81-5.12C225.65,179.62,225.49,180.14,225.85,180.21Z"/></svg>